999
dxflib 3.12.2.0
  0
SECTION
  2
HEADER
  9
$ACADVER
  1
AC1015
  9
$HANDSEED
  5
FFFF
  9
$DIMADEC
 70
0
  9
$DIMASZ
 40
2.5
  9
$DIMAUNIT
 70
0
  9
$DIMAZIN
 70
2
  9
$DIMDEC
 70
4
  9
$DIMEXE
 40
1.25
  9
$DIMEXO
 40
0.625
  9
$DIMGAP
 40
0.625
  9
$DIMLUNIT
 70
2
  9
$DIMSCALE
 40
1.0
  9
$DIMTSZ
 40
0.0
  9
$DIMTXT
 40
2.5
  9
$DIMZIN
 70
8
  9
$DWGCODEPAGE
  3
ANSI_1252
  9
$INSUNITS
 70
4
  9
$LTSCALE
 40
1.0
  9
$MEASUREMENT
 70
1
  9
$PDMODE
 70
0
  9
$PDSIZE
 40
0
  0
ENDSEC
  0
SECTION
  2
TABLES
  0
TABLE
  2
VPORT
  5
8
100
AcDbSymbolTable
 70
1
  0
VPORT
  5
30
100
AcDbSymbolTableRecord
100
AcDbViewportTableRecord
  2
*Active
 70
0
 10
0.0
 20
0.0
 11
1.0
 21
1.0
 12
286.3055555555554861
 22
148.5
 13
0.0
 23
0.0
 14
10.0
 24
10.0
 15
10.0
 25
10.0
 16
0.0
 26
0.0
 36
1.0
 17
0.0
 27
0.0
 37
0.0
 40
297.0
 41
1.92798353909465
 42
50.0
 43
0.0
 44
0.0
 50
0.0
 51
0.0
 71
0
 72
100
 73
1
 74
3
 75
1
 76
1
 77
0
 78
0
281
0
 65
1
110
0.0
120
0.0
130
0.0
111
1.0
121
0.0
131
0.0
112
0.0
122
1.0
132
0.0
 79
0
146
0.0
  0
ENDTAB
  0
TABLE
  2
LTYPE
  5
5
100
AcDbSymbolTable
 70
50
  0
LTYPE
  5
16
100
AcDbSymbolTableRecord
100
AcDbLinetypeTableRecord
  2
Continuous
 70
0
  3
Solid line
 72
65
 73
0
 40
0.0
  0
LTYPE
  5
31
100
AcDbSymbolTableRecord
100
AcDbLinetypeTableRecord
  2
ACAD_ISO15W100
 70
0
  3
ISO double-dash triple-dot __ __ . . . __ __ . .
 72
65
 73
10
 40
39.0000000000000071
 49
12.0
 74
0
 49
-3.0
 74
0
 49
12.0
 74
0
 49
-2.9500000000000002
 74
0
 49
0.1
 74
0
 49
-2.9000000000000004
 74
0
 49
0.1
 74
0
 49
-2.9000000000000004
 74
0
 49
0.1
 74
0
 49
-2.9500000000000002
 74
0
  0
LTYPE
  5
32
100
AcDbSymbolTableRecord
100
AcDbLinetypeTableRecord
  2
HOT_WATER_SUPPLY
 70
0
  3
Hot water supply ---- HW ---- HW ---- HW ----
 72
65
 73
3
 40
22.8599999999999994
 49
12.6999999999999993
 74
0
 49
-5.0800000000000001
 74
0
 49
-5.0800000000000001
 74
0
  0
LTYPE
  5
33
100
AcDbSymbolTableRecord
100
AcDbLinetypeTableRecord
  2
DIVIDE
 70
0
  3
Divide ____ . . ____ . . ____ . . ____ . . ____
 72
65
 73
6
 40
31.7500000000000036
 49
12.6999999999999993
 74
0
 49
-6.2999999999999998
 74
0
 49
0.1
 74
0
 49
-6.25
 74
0
 49
0.1
 74
0
 49
-6.2999999999999998
 74
0
  0
LTYPE
  5
34
100
AcDbSymbolTableRecord
100
AcDbLinetypeTableRecord
  2
ACAD_ISO10W100
 70
0
  3
ISO dash dot __ . __ . __ . __ . __ . __ . __ . 
 72
65
 73
4
 40
18.0
 49
12.0
 74
0
 49
-2.9500000000000002
 74
0
 49
0.1
 74
0
 49
-2.9500000000000002
 74
0
  0
LTYPE
  5
35
100
AcDbSymbolTableRecord
100
AcDbLinetypeTableRecord
  2
GAS_LINE
 70
0
  3
Gas line ----GAS----GAS----GAS----GAS----GAS----GAS--
 72
65
 73
3
 40
24.1300000000000026
 49
12.6999999999999993
 74
0
 49
-5.0800000000000001
 74
0
 49
-6.3499999999999996
 74
0
  0
LTYPE
  5
36
100
AcDbSymbolTableRecord
100
AcDbLinetypeTableRecord
  2
ACAD_ISO04W100
 70
0
  3
ISO long-dash dot ____ . ____ . ____ . ____ . _
 72
65
 73
4
 40
30.0
 49
24.0
 74
0
 49
-2.9500000000000002
 74
0
 49
0.1
 74
0
 49
-2.9500000000000002
 74
0
  0
LTYPE
  5
37
100
AcDbSymbolTableRecord
100
AcDbLinetypeTableRecord
  2
CENTER2
 70
0
  3
Center (.5x) ___ _ ___ _ ___ _ ___ _ ___ _ ___
 72
65
 73
4
 40
28.5750000000000028
 49
19.0500000000000007
 74
0
 49
-3.1749999999999998
 74
0
 49
3.1749999999999998
 74
0
 49
-3.1749999999999998
 74
0
  0
LTYPE
  5
38
100
AcDbSymbolTableRecord
100
AcDbLinetypeTableRecord
  2
ACAD_ISO11W100
 70
0
  3
ISO double-dash dot __ __ . __ __ . __ __ . __ _
 72
65
 73
6
 40
33.0
 49
12.0
 74
0
 49
-3.0
 74
0
 49
12.0
 74
0
 49
-2.9500000000000002
 74
0
 49
0.1
 74
0
 49
-2.9500000000000002
 74
0
  0
LTYPE
  5
39
100
AcDbSymbolTableRecord
100
AcDbLinetypeTableRecord
  2
HIDDEN2
 70
0
  3
Hidden (.5x) _ _ _ _ _ _ _ _ _ _ _ _ _ _ _ _ _ 
 72
65
 73
2
 40
4.7624999999999993
 49
3.1749999999999998
 74
0
 49
-1.5874999999999999
 74
0
  0
LTYPE
  5
3A
100
AcDbSymbolTableRecord
100
AcDbLinetypeTableRecord
  2
BORDERX2
 70
0
  3
Border (2x) ____  ____  .  ____  ____  .  ___
 72
65
 73
6
 40
88.8999999999999773
 49
25.3999999999999986
 74
0
 49
-12.6999999999999993
 74
0
 49
25.3999999999999986
 74
0
 49
-12.6499999999999986
 74
0
 49
0.1
 74
0
 49
-12.6499999999999986
 74
0
  0
LTYPE
  5
3B
100
AcDbSymbolTableRecord
100
AcDbLinetypeTableRecord
  2
ACAD_ISO05W100
 70
0
  3
ISO long-dash double-dot ____ .. ____ .. ____ . 
 72
65
 73
6
 40
33.0000000000000071
 49
24.0
 74
0
 49
-2.9500000000000002
 74
0
 49
0.1
 74
0
 49
-2.9000000000000004
 74
0
 49
0.1
 74
0
 49
-2.9500000000000002
 74
0
  0
LTYPE
  5
3C
100
AcDbSymbolTableRecord
100
AcDbLinetypeTableRecord
  2
DASHDOTX2
 70
0
  3
Dash dot (2x) ____  .  ____  .  ____  .  ___
 72
65
 73
4
 40
50.7999999999999972
 49
25.3999999999999986
 74
0
 49
-12.6499999999999986
 74
0
 49
0.1
 74
0
 49
-12.6499999999999986
 74
0
  0
LTYPE
  5
3D
100
AcDbSymbolTableRecord
100
AcDbLinetypeTableRecord
  2
HIDDENX2
 70
0
  3
Hidden (2x) ____ ____ ____ ____ ____ ____ ____ 
 72
65
 73
2
 40
19.0499999999999972
 49
12.6999999999999993
 74
0
 49
-6.3499999999999996
 74
0
  0
LTYPE
  5
3E
100
AcDbSymbolTableRecord
100
AcDbLinetypeTableRecord
  2
CENTERX2
 70
0
  3
Center (2x) ________  __  ________  __  _____
 72
65
 73
4
 40
101.6000000000000085
 49
63.5
 74
0
 49
-12.6999999999999993
 74
0
 49
12.6999999999999993
 74
0
 49
-12.6999999999999993
 74
0
  0
LTYPE
  5
3F
100
AcDbSymbolTableRecord
100
AcDbLinetypeTableRecord
  2
BORDER2
 70
0
  3
Border (.5x) __.__.__.__.__.__.__.__.__.__.__.
 72
65
 73
6
 40
22.2250000000000014
 49
6.3499999999999996
 74
0
 49
-3.1749999999999998
 74
0
 49
6.3499999999999996
 74
0
 49
-3.125
 74
0
 49
0.1
 74
0
 49
-3.125
 74
0
  0
LTYPE
  5
40
100
AcDbSymbolTableRecord
100
AcDbLinetypeTableRecord
  2
DASHDOT2
 70
0
  3
Dash dot (.5x) _._._._._._._._._._._._._._._.
 72
65
 73
4
 40
12.6999999999999993
 49
6.3499999999999996
 74
0
 49
-3.125
 74
0
 49
0.1
 74
0
 49
-3.125
 74
0
  0
LTYPE
  5
41
100
AcDbSymbolTableRecord
100
AcDbLinetypeTableRecord
  2
ACAD_ISO12W100
 70
0
  3
ISO dash double-dot __ . . __ . . __ . . __ . . 
 72
65
 73
6
 40
21.0
 49
12.0
 74
0
 49
-2.9500000000000002
 74
0
 49
0.1
 74
0
 49
-2.9000000000000004
 74
0
 49
0.1
 74
0
 49
-2.9500000000000002
 74
0
  0
LTYPE
  5
42
100
AcDbSymbolTableRecord
100
AcDbLinetypeTableRecord
  2
ACAD_ISO07W100
 70
0
  3
ISO dot . . . . . . . . . . . . . . . . . . . . 
 72
65
 73
2
 40
3.0
 49
0.1
 74
0
 49
-2.8999999999999999
 74
0
  0
LTYPE
  5
43
100
AcDbSymbolTableRecord
100
AcDbLinetypeTableRecord
  2
HIDDEN
 70
0
  3
Hidden __ __ __ __ __ __ __ __ __ __ __ __ __ __
 72
65
 73
2
 40
9.5249999999999986
 49
6.3499999999999996
 74
0
 49
-3.1749999999999998
 74
0
  0
LTYPE
  5
44
100
AcDbSymbolTableRecord
100
AcDbLinetypeTableRecord
  2
ACAD_ISO06W100
 70
0
  3
ISO long-dash triple-dot ____ ... ____ ... ____
 72
65
 73
8
 40
36.0000000000000071
 49
24.0
 74
0
 49
-2.9500000000000002
 74
0
 49
0.1
 74
0
 49
-2.9000000000000004
 74
0
 49
0.1
 74
0
 49
-2.9000000000000004
 74
0
 49
0.1
 74
0
 49
-2.9500000000000002
 74
0
  0
LTYPE
  5
45
100
AcDbSymbolTableRecord
100
AcDbLinetypeTableRecord
  2
CENTER
 70
0
  3
Center ____ _ ____ _ ____ _ ____ _ ____ _ ____
 72
65
 73
4
 40
50.8000000000000043
 49
31.75
 74
0
 49
-6.3499999999999996
 74
0
 49
6.3499999999999996
 74
0
 49
-6.3499999999999996
 74
0
  0
LTYPE
  5
46
100
AcDbSymbolTableRecord
100
AcDbLinetypeTableRecord
  2
DOTX2
 70
0
  3
Dot (2x) .  .  .  .  .  .  .  .  .  .  .  .  .  .
 72
65
 73
2
 40
12.6999999999999993
 49
0.1
 74
0
 49
-12.5999999999999996
 74
0
  0
LTYPE
  5
47
100
AcDbSymbolTableRecord
100
AcDbLinetypeTableRecord
  2
PHANTOM
 70
0
  3
Phantom ______  __  __  ______  __  __  ______ 
 72
65
 73
6
 40
63.5000000000000071
 49
31.75
 74
0
 49
-6.3499999999999996
 74
0
 49
6.3499999999999996
 74
0
 49
-6.3499999999999996
 74
0
 49
6.3499999999999996
 74
0
 49
-6.3499999999999996
 74
0
  0
LTYPE
  5
48
100
AcDbSymbolTableRecord
100
AcDbLinetypeTableRecord
  2
ACAD_ISO08W100
 70
0
  3
ISO long-dash short-dash ____ __ ____ __ ____ _
 72
65
 73
4
 40
36.0
 49
24.0
 74
0
 49
-3.0
 74
0
 49
6.0
 74
0
 49
-3.0
 74
0
  0
LTYPE
  5
49
100
AcDbSymbolTableRecord
100
AcDbLinetypeTableRecord
  2
DASHEDX2
 70
0
  3
Dashed (2x) ____  ____  ____  ____  ____  ___
 72
65
 73
2
 40
38.0999999999999943
 49
25.3999999999999986
 74
0
 49
-12.6999999999999993
 74
0
  0
LTYPE
  5
4A
100
AcDbSymbolTableRecord
100
AcDbLinetypeTableRecord
  2
DRAINAGE
 70
0
  3
Drainage ---->---->---->----
 72
65
 73
2
 40
10.1600000000000001
 49
5.0800000000000001
 74
0
 49
5.0800000000000001
 74
0
  0
LTYPE
  5
4B
100
AcDbSymbolTableRecord
100
AcDbLinetypeTableRecord
  2
ACAD_ISO02W100
 70
0
  3
ISO dash __ __ __ __ __ __ __ __ __ __ __ __ __
 72
65
 73
2
 40
15.0
 49
12.0
 74
0
 49
-3.0
 74
0
  0
LTYPE
  5
4C
100
AcDbSymbolTableRecord
100
AcDbLinetypeTableRecord
  2
PHANTOM2
 70
0
  3
Phantom (.5x) ___ _ _ ___ _ _ ___ _ _ ___ _ _
 72
65
 73
6
 40
31.7500000000000036
 49
15.875
 74
0
 49
-3.1749999999999998
 74
0
 49
3.1749999999999998
 74
0
 49
-3.1749999999999998
 74
0
 49
3.1749999999999998
 74
0
 49
-3.1749999999999998
 74
0
  0
LTYPE
  5
4D
100
AcDbSymbolTableRecord
100
AcDbLinetypeTableRecord
  2
DASHED2
 70
0
  3
Dashed (.5x) _ _ _ _ _ _ _ _ _ _ _ _ _ _ _ _ _ 
 72
65
 73
2
 40
9.5249999999999986
 49
6.3499999999999996
 74
0
 49
-3.1749999999999998
 74
0
  0
LTYPE
  5
4E
100
AcDbSymbolTableRecord
100
AcDbLinetypeTableRecord
  2
ACAD_ISO09W100
 70
0
  3
ISO long-dash double-short-dash ____ __ __ ____
 72
65
 73
6
 40
45.0
 49
24.0
 74
0
 49
-3.0
 74
0
 49
6.0
 74
0
 49
-3.0
 74
0
 49
6.0
 74
0
 49
-3.0
 74
0
  0
LTYPE
  5
4F
100
AcDbSymbolTableRecord
100
AcDbLinetypeTableRecord
  2
ACAD_ISO13W100
 70
0
  3
ISO double-dash double-dot __ __ . . __ __ . . _
 72
65
 73
8
 40
36.0000000000000071
 49
12.0
 74
0
 49
-3.0
 74
0
 49
12.0
 74
0
 49
-2.9500000000000002
 74
0
 49
0.1
 74
0
 49
-2.9000000000000004
 74
0
 49
0.1
 74
0
 49
-2.9500000000000002
 74
0
  0
LTYPE
  5
50
100
AcDbSymbolTableRecord
100
AcDbLinetypeTableRecord
  2
TRACKS
 70
0
  3
Tracks -|-|-|-|-|-|-|-|-|-|-|-|-|-|-|-|-|-|-|-|-|-|-|-|-
 72
65
 73
2
 40
7.6200000000000001
 49
3.8100000000000001
 74
0
 49
3.8100000000000001
 74
0
  0
LTYPE
  5
51
100
AcDbSymbolTableRecord
100
AcDbLinetypeTableRecord
  2
DRAINAGE2
 70
0
  3
Drainage reversed----<----<----<----
 72
65
 73
2
 40
10.1600000000000001
 49
5.0800000000000001
 74
0
 49
5.0800000000000001
 74
0
  0
LTYPE
  5
52
100
AcDbSymbolTableRecord
100
AcDbLinetypeTableRecord
  2
DOT2
 70
0
  3
Dot (.5x) ........................................
 72
65
 73
2
 40
3.1749999999999998
 49
0.1
 74
0
 49
-3.0749999999999997
 74
0
  0
LTYPE
  5
53
100
AcDbSymbolTableRecord
100
AcDbLinetypeTableRecord
  2
ZIGZAG
 70
0
  3
Zig zag /\/\/\/\/\/\/\/\/\/\/\/\/\/\/\/\/\/\/\/\/\/\/\/
 72
65
 73
4
 40
20.32254
 49
0.00254
 74
0
 49
-5.0800000000000001
 74
0
 49
-10.1600000000000001
 74
0
 49
-5.0800000000000001
 74
0
  0
LTYPE
  5
54
100
AcDbSymbolTableRecord
100
AcDbLinetypeTableRecord
  2
DASHED
 70
0
  3
Dashed __ __ __ __ __ __ __ __ __ __ __ __ __ _
 72
65
 73
2
 40
19.0499999999999972
 49
12.6999999999999993
 74
0
 49
-6.3499999999999996
 74
0
  0
LTYPE
  5
55
100
AcDbSymbolTableRecord
100
AcDbLinetypeTableRecord
  2
ACAD_ISO14W100
 70
0
  3
ISO dash triple-dot __ . . . __ . . . __ . . . _
 72
65
 73
8
 40
24.0000000000000036
 49
12.0
 74
0
 49
-2.9500000000000002
 74
0
 49
0.1
 74
0
 49
-2.9000000000000004
 74
0
 49
0.1
 74
0
 49
-2.9000000000000004
 74
0
 49
0.1
 74
0
 49
-2.9500000000000002
 74
0
  0
LTYPE
  5
15
100
AcDbSymbolTableRecord
100
AcDbLinetypeTableRecord
  2
BYLAYER
 70
0
  3

 72
65
 73
0
 40
0.0
  0
LTYPE
  5
56
100
AcDbSymbolTableRecord
100
AcDbLinetypeTableRecord
  2
PHANTOMX2
 70
0
  3
Phantom (2x) ____________    ____    ____   _
 72
65
 73
6
 40
127.0000000000000142
 49
63.5
 74
0
 49
-12.6999999999999993
 74
0
 49
12.6999999999999993
 74
0
 49
-12.6999999999999993
 74
0
 49
12.6999999999999993
 74
0
 49
-12.6999999999999993
 74
0
  0
LTYPE
  5
14
100
AcDbSymbolTableRecord
100
AcDbLinetypeTableRecord
  2
BYBLOCK
 70
0
  3

 72
65
 73
0
 40
0.0
  0
LTYPE
  5
57
100
AcDbSymbolTableRecord
100
AcDbLinetypeTableRecord
  2
DIVIDEX2
 70
0
  3
Divide (2x) ________  .  .  ________  .  .  _
 72
65
 73
6
 40
63.5
 49
25.3999999999999986
 74
0
 49
-12.6499999999999986
 74
0
 49
0.1
 74
0
 49
-12.5999999999999979
 74
0
 49
0.1
 74
0
 49
-12.6499999999999986
 74
0
  0
LTYPE
  5
58
100
AcDbSymbolTableRecord
100
AcDbLinetypeTableRecord
  2
BORDER
 70
0
  3
Border __ __ . __ __ . __ __ . __ __ . __ __ .
 72
65
 73
6
 40
44.4499999999999957
 49
12.6999999999999993
 74
0
 49
-6.3499999999999996
 74
0
 49
12.6999999999999993
 74
0
 49
-6.2999999999999998
 74
0
 49
0.1
 74
0
 49
-6.2999999999999998
 74
0
  0
LTYPE
  5
59
100
AcDbSymbolTableRecord
100
AcDbLinetypeTableRecord
  2
DIVIDE2
 70
0
  3
Divide (.5x) __..__..__..__..__..__..__..__.._
 72
65
 73
6
 40
15.8749999999999982
 49
6.3499999999999996
 74
0
 49
-3.125
 74
0
 49
0.1
 74
0
 49
-3.0750000000000002
 74
0
 49
0.1
 74
0
 49
-3.125
 74
0
  0
LTYPE
  5
5A
100
AcDbSymbolTableRecord
100
AcDbLinetypeTableRecord
  2
DOT
 70
0
  3
Dot . . . . . . . . . . . . . . . . . . . . . . . .
 72
65
 73
2
 40
6.3499999999999996
 49
0.1
 74
0
 49
-6.25
 74
0
  0
LTYPE
  5
5B
100
AcDbSymbolTableRecord
100
AcDbLinetypeTableRecord
  2
DASHDOT
 70
0
  3
Dash dot __ . __ . __ . __ . __ . __ . __ . __
 72
65
 73
4
 40
25.4000000000000021
 49
12.6999999999999993
 74
0
 49
-6.2999999999999998
 74
0
 49
0.1
 74
0
 49
-6.2999999999999998
 74
0
  0
LTYPE
  5
5C
100
AcDbSymbolTableRecord
100
AcDbLinetypeTableRecord
  2
FENCELINE1
 70
0
  3
Fenceline circle ----0-----0----0-----0----0-----0--
 72
65
 73
4
 40
36.8299999999999983
 49
6.3499999999999996
 74
0
 49
-2.54
 74
0
 49
-2.54
 74
0
 49
25.3999999999999986
 74
0
  0
LTYPE
  5
5D
100
AcDbSymbolTableRecord
100
AcDbLinetypeTableRecord
  2
ACAD_ISO03W100
 70
0
  3
ISO dash space __    __    __    __    __    __
 72
65
 73
2
 40
30.0
 49
12.0
 74
0
 49
-18.0
 74
0
  0
LTYPE
  5
5E
100
AcDbSymbolTableRecord
100
AcDbLinetypeTableRecord
  2
BATTING
 70
0
  3
Batting SSSSSSSSSSSSSSSSSSSSSSSSSSSSSSSSSSSSSSSSSSSSSSS
 72
65
 73
4
 40
10.1625399999999999
 49
0.00254
 74
0
 49
-2.54
 74
0
 49
-5.0800000000000001
 74
0
 49
-2.54
 74
0
  0
LTYPE
  5
5F
100
AcDbSymbolTableRecord
100
AcDbLinetypeTableRecord
  2
FENCELINE2
 70
0
  3
Fenceline square ----[]-----[]----[]-----[]----[]---
 72
65
 73
4
 40
36.8299999999999983
 49
6.3499999999999996
 74
0
 49
-2.54
 74
0
 49
-2.54
 74
0
 49
25.3999999999999986
 74
0
  0
ENDTAB
  0
TABLE
  2
LAYER
  5
2
100
AcDbSymbolTable
 70
2
  0
LAYER
  5
60
100
AcDbSymbolTableRecord
100
AcDbLayerTableRecord
  2
VISIBLE
 70
0
 62
7
420
16777215
  6
Continuous
370
-3
390
F
  0
LAYER
  5
10
100
AcDbSymbolTableRecord
100
AcDbLayerTableRecord
  2
0
 70
0
 62
7
420
16777215
  6
Continuous
370
0
390
F
  0
ENDTAB
  0
TABLE
  2
STYLE
  5
3
100
AcDbSymbolTable
 70
1
  0
STYLE
  5
61
100
AcDbSymbolTableRecord
100
AcDbTextStyleTableRecord
  2
Standard
 70
0
 40
0.0
 41
1.0
 50
0.0
 71
0
 42
2.5
  3

  4

1001
ACAD
1000
txt
1071
0
  0
ENDTAB
  0
TABLE
  2
VIEW
  5
6
100
AcDbSymbolTable
 70
0
  0
ENDTAB
  0
TABLE
  2
UCS
  5
7
100
AcDbSymbolTable
 70
0
  0
ENDTAB
  0
TABLE
  2
APPID
  5
9
100
AcDbSymbolTable
 70
1
  0
APPID
  5
12
100
AcDbSymbolTableRecord
100
AcDbRegAppTableRecord
  2
ACAD
 70
0
  0
APPID
  5
62
100
AcDbSymbolTableRecord
100
AcDbRegAppTableRecord
  2
QCAD
 70
0
  0
ENDTAB
  0
TABLE
  2
DIMSTYLE
  5
A
100
AcDbSymbolTable
 70
1
100
AcDbDimStyleTable
 71
0
  0
DIMSTYLE
105
27
100
AcDbSymbolTableRecord
100
AcDbDimStyleTableRecord
  2
Standard
 41
2.5
 42
0.625
 43
3.75
 44
1.25
 70
0
 73
0
 74
0
 77
1
 78
8
140
2.5
141
2.5
143
0.03937007874016
147
0.625
171
3
172
1
271
2
272
2
274
3
278
44
283
0
284
8
340
61
  0
ENDTAB
  0
TABLE
  2
BLOCK_RECORD
  5
1
100
AcDbSymbolTable
 70
1
  0
BLOCK_RECORD
  5
1F
100
AcDbSymbolTableRecord
100
AcDbBlockTableRecord
  2
*Model_Space
340
22
  0
BLOCK_RECORD
  5
1B
100
AcDbSymbolTableRecord
100
AcDbBlockTableRecord
  2
*Paper_Space
340
1E
  0
BLOCK_RECORD
  5
23
100
AcDbSymbolTableRecord
100
AcDbBlockTableRecord
  2
*Paper_Space0
340
26
  0
ENDTAB
  0
ENDSEC
  0
SECTION
  2
BLOCKS
  0
BLOCK
  5
20
100
AcDbEntity
  8
0
100
AcDbBlockBegin
  2
*Model_Space
 70
0
 10
0.0
 20
0.0
 30
0.0
  3
*Model_Space
  1

  0
ENDBLK
  5
21
100
AcDbEntity
  8
0
100
AcDbBlockEnd
  0
BLOCK
  5
1C
100
AcDbEntity
 67
1
  8
0
100
AcDbBlockBegin
  2
*Paper_Space
 70
0
 10
0.0
 20
0.0
 30
0.0
  3
*Paper_Space
  1

  0
ENDBLK
  5
1D
100
AcDbEntity
 67
1
  8
0
100
AcDbBlockEnd
  0
BLOCK
  5
24
100
AcDbEntity
  8
0
100
AcDbBlockBegin
  2
*Paper_Space0
 70
0
 10
0.0
 20
0.0
 30
0.0
  3
*Paper_Space0
  1

  0
ENDBLK
  5
25
100
AcDbEntity
  8
0
100
AcDbBlockEnd
  0
ENDSEC
  0
SECTION
  2
ENTITIES
  0
LINE
  5
63
100
AcDbEntity
100
AcDbLine
  8
VISIBLE
 62
256
370
-1
 48
1.0
  6
BYLAYER
 10
428.2313551696528293
 20
247.1551678031690074
 30
0.0
 11
428.2313551696528293
 21
244.1551678031689789
 31
0.0
  0
LINE
  5
64
100
AcDbEntity
100
AcDbLine
  8
VISIBLE
 62
256
370
-1
 48
1.0
  6
BYLAYER
 10
428.5960019432081367
 20
204.9416638375753905
 30
0.0
 11
428.5960019432081367
 21
201.9416638375753621
 31
0.0
  0
LINE
  5
65
100
AcDbEntity
100
AcDbLine
  8
VISIBLE
 62
256
370
-1
 48
1.0
  6
BYLAYER
 10
489.0
 20
65.0
 30
0.0
 11
486.0
 21
65.0
 31
0.0
  0
LINE
  5
66
100
AcDbEntity
100
AcDbLine
  8
VISIBLE
 62
256
370
-1
 48
1.0
  6
BYLAYER
 10
450.0
 20
65.0
 30
0.0
 11
447.0
 21
65.0
 31
0.0
  0
LINE
  5
67
100
AcDbEntity
100
AcDbLine
  8
VISIBLE
 62
256
370
-1
 48
1.0
  6
BYLAYER
 10
410.6221891252880596
 20
65.0250608838472886
 30
0.0
 11
407.6221891252880596
 21
65.0250608838472886
 31
0.0
  0
LINE
  5
68
100
AcDbEntity
100
AcDbLine
  8
VISIBLE
 62
256
370
-1
 48
1.0
  6
BYLAYER
 10
371.3944924852880831
 20
64.8818058438472889
 30
0.0
 11
368.3944924852880831
 21
64.8818058438472889
 31
0.0
  0
LINE
  5
69
100
AcDbEntity
100
AcDbLine
  8
VISIBLE
 62
256
370
-1
 48
1.0
  6
BYLAYER
 10
371.0
 20
92.5
 30
0.0
 11
371.0
 21
100.0
 31
0.0
  0
LINE
  5
6A
100
AcDbEntity
100
AcDbLine
  8
VISIBLE
 62
256
370
-1
 48
1.0
  6
BYLAYER
 10
332.1779531103545651
 20
93.074944156380667
 30
0.0
 11
332.1779531103545651
 21
100.574944156380667
 31
0.0
  0
LINE
  5
6B
100
AcDbEntity
100
AcDbLine
  8
VISIBLE
 62
256
370
-1
 48
1.0
  6
BYLAYER
 10
255.256814934354594
 20
283.5452205083806803
 30
0.0
 11
255.256814934354594
 21
280.5452205083806803
 31
0.0
  0
LINE
  5
6C
100
AcDbEntity
100
AcDbLine
  8
VISIBLE
 62
256
370
-1
 48
1.0
  6
BYLAYER
 10
255.256814934354594
 20
242.5452205083806803
 30
0.0
 11
255.256814934354594
 21
239.5452205083806803
 31
0.0
  0
LINE
  5
6D
100
AcDbEntity
100
AcDbLine
  8
VISIBLE
 62
256
370
-1
 48
1.0
  6
BYLAYER
 10
208.2532507385145948
 20
30.4308081794206657
 30
0.0
 11
205.2532507385145664
 21
30.4308081794206657
 31
0.0
  0
LINE
  5
6E
100
AcDbEntity
100
AcDbLine
  8
VISIBLE
 62
256
370
-1
 48
1.0
  6
BYLAYER
 10
463.2313551696528293
 20
247.1551678031689789
 30
0.0
 11
463.2313551696528293
 21
244.1551678031689789
 31
0.0
  0
LINE
  5
6F
100
AcDbEntity
100
AcDbLine
  8
VISIBLE
 62
256
370
-1
 48
1.0
  6
BYLAYER
 10
463.5960019432081367
 20
204.9416638375753621
 30
0.0
 11
463.5960019432081367
 21
201.9416638375753621
 31
0.0
  0
LINE
  5
70
100
AcDbEntity
100
AcDbLine
  8
VISIBLE
 62
256
370
-1
 48
1.0
  6
BYLAYER
 10
488.9999999999999432
 20
30.0
 30
0.0
 11
486.0
 21
30.0
 31
0.0
  0
LINE
  5
71
100
AcDbEntity
100
AcDbLine
  8
VISIBLE
 62
256
370
-1
 48
1.0
  6
BYLAYER
 10
449.9999999999999432
 20
30.0
 30
0.0
 11
447.0
 21
30.0
 31
0.0
  0
LINE
  5
72
100
AcDbEntity
100
AcDbLine
  8
VISIBLE
 62
256
370
-1
 48
1.0
  6
BYLAYER
 10
410.6221891252880027
 20
30.0250608838472886
 30
0.0
 11
407.6221891252880596
 21
30.0250608838472886
 31
0.0
  0
LINE
  5
73
100
AcDbEntity
100
AcDbLine
  8
VISIBLE
 62
256
370
-1
 48
1.0
  6
BYLAYER
 10
371.3944924852880263
 20
29.8818058438472889
 30
0.0
 11
368.3944924852880831
 21
29.8818058438472889
 31
0.0
  0
LINE
  5
74
100
AcDbEntity
100
AcDbLine
  8
VISIBLE
 62
256
370
-1
 48
1.0
  6
BYLAYER
 10
333.0
 20
175.0
 30
0.0
 11
330.0
 21
175.0
 31
0.0
  0
LINE
  5
75
100
AcDbEntity
100
AcDbLine
  8
VISIBLE
 62
256
370
-1
 48
1.0
  6
BYLAYER
 10
294.1779531103545651
 20
175.5749441563806954
 30
0.0
 11
291.1779531103545651
 21
175.5749441563806954
 31
0.0
  0
LINE
  5
76
100
AcDbEntity
100
AcDbLine
  8
VISIBLE
 62
256
370
-1
 48
1.0
  6
BYLAYER
 10
155.256814934354594
 20
283.5452205083806803
 30
0.0
 11
135.256814934354594
 21
283.5452205083806803
 31
0.0
  0
LINE
  5
77
100
AcDbEntity
100
AcDbLine
  8
VISIBLE
 62
256
370
-1
 48
1.0
  6
BYLAYER
 10
155.256814934354594
 20
242.5452205083806803
 30
0.0
 11
135.256814934354594
 21
242.5452205083806803
 31
0.0
  0
LINE
  5
78
100
AcDbEntity
100
AcDbLine
  8
VISIBLE
 62
256
370
-1
 48
1.0
  6
BYLAYER
 10
249.2532507385146232
 20
135.4308081794206373
 30
0.0
 11
246.2532507385146232
 21
135.4308081794206373
 31
0.0
  0
LINE
  5
79
100
AcDbEntity
100
AcDbLine
  8
VISIBLE
 62
256
370
-1
 48
1.0
  6
BYLAYER
 10
493.2313551696528293
 20
272.1551678031689789
 30
0.0
 11
490.2313551696528293
 21
272.1551678031689789
 31
0.0
  0
LINE
  5
7A
100
AcDbEntity
100
AcDbLine
  8
VISIBLE
 62
256
370
-1
 48
1.0
  6
BYLAYER
 10
493.5960019432081367
 20
229.9416638375753621
 30
0.0
 11
490.5960019432081367
 21
229.9416638375753621
 31
0.0
  0
LINE
  5
7B
100
AcDbEntity
100
AcDbLine
  8
VISIBLE
 62
256
370
-1
 48
1.0
  6
BYLAYER
 10
514.0
 20
-0.0000000000000142
 30
0.0
 11
514.0
 21
2.9999999999999858
 31
0.0
  0
LINE
  5
7C
100
AcDbEntity
100
AcDbLine
  8
VISIBLE
 62
256
370
-1
 48
1.0
  6
BYLAYER
 10
475.0
 20
-0.0000000000000142
 30
0.0
 11
474.9999999999999432
 21
2.9999999999999858
 31
0.0
  0
LINE
  5
7D
100
AcDbEntity
100
AcDbLine
  8
VISIBLE
 62
256
370
-1
 48
1.0
  6
BYLAYER
 10
435.6221891252880596
 20
0.0250608838472743
 30
0.0
 11
435.6221891252880027
 21
3.0250608838472743
 31
0.0
  0
LINE
  5
7E
100
AcDbEntity
100
AcDbLine
  8
VISIBLE
 62
256
370
-1
 48
1.0
  6
BYLAYER
 10
396.3944924852880831
 20
-0.1181941561527253
 30
0.0
 11
396.3944924852880263
 21
2.8818058438472747
 31
0.0
  0
LINE
  5
7F
100
AcDbEntity
100
AcDbLine
  8
VISIBLE
 62
256
370
-1
 48
1.0
  6
BYLAYER
 10
333.0
 20
200.0
 30
0.0
 11
343.0
 21
200.0
 31
0.0
  0
LINE
  5
80
100
AcDbEntity
100
AcDbLine
  8
VISIBLE
 62
256
370
-1
 48
1.0
  6
BYLAYER
 10
294.1779531103545651
 20
200.574944156380667
 30
0.0
 11
304.1779531103545651
 21
200.574944156380667
 31
0.0
  0
LINE
  5
81
100
AcDbEntity
100
AcDbLine
  8
VISIBLE
 62
256
370
-1
 48
1.0
  6
BYLAYER
 10
249.256814934354594
 20
270.5452205083806803
 30
0.0
 11
246.2568149343546793
 21
270.5452205083806803
 31
0.0
  0
LINE
  5
82
100
AcDbEntity
100
AcDbLine
  8
VISIBLE
 62
256
370
-1
 48
1.0
  6
BYLAYER
 10
249.256814934354594
 20
229.5452205083806518
 30
0.0
 11
246.2568149343546793
 21
229.5452205083806518
 31
0.0
  0
LINE
  5
83
100
AcDbEntity
100
AcDbLine
  8
VISIBLE
 62
256
370
-1
 48
1.0
  6
BYLAYER
 10
123.2532507385146801
 20
65.4308081794206657
 30
0.0
 11
126.2532507385147085
 21
65.4308081794206657
 31
0.0
  0
LINE
  5
84
100
AcDbEntity
100
AcDbLine
  8
VISIBLE
 62
256
370
-1
 48
1.0
  6
BYLAYER
 10
493.2313551696528293
 20
272.1551678031689789
 30
0.0
 11
493.2313551696528293
 21
257.1551678031689789
 31
0.0
  0
LINE
  5
85
100
AcDbEntity
100
AcDbLine
  8
VISIBLE
 62
256
370
-1
 48
1.0
  6
BYLAYER
 10
493.5960019432081367
 20
229.9416638375753621
 30
0.0
 11
493.5960019432081367
 21
214.9416638375753621
 31
0.0
  0
LINE
  5
86
100
AcDbEntity
100
AcDbLine
  8
VISIBLE
 62
256
370
-1
 48
1.0
  6
BYLAYER
 10
514.0
 20
-0.0000000000000142
 30
0.0
 11
498.9999999999999432
 21
0.0
 31
0.0
  0
LINE
  5
87
100
AcDbEntity
100
AcDbLine
  8
VISIBLE
 62
256
370
-1
 48
1.0
  6
BYLAYER
 10
475.0
 20
-0.0000000000000142
 30
0.0
 11
459.9999999999999432
 21
0.0
 31
0.0
  0
LINE
  5
88
100
AcDbEntity
100
AcDbLine
  8
VISIBLE
 62
256
370
-1
 48
1.0
  6
BYLAYER
 10
435.6221891252880596
 20
0.0250608838472743
 30
0.0
 11
420.6221891252880027
 21
0.0250608838472886
 31
0.0
  0
LINE
  5
89
100
AcDbEntity
100
AcDbLine
  8
VISIBLE
 62
256
370
-1
 48
1.0
  6
BYLAYER
 10
396.3944924852880831
 20
-0.1181941561527253
 30
0.0
 11
381.3944924852880263
 21
-0.1181941561527111
 31
0.0
  0
LINE
  5
8A
100
AcDbEntity
100
AcDbLine
  8
VISIBLE
 62
256
370
-1
 48
1.0
  6
BYLAYER
 10
343.0
 20
0.0
 30
0.0
 11
343.0
 21
3.0
 31
0.0
  0
LINE
  5
8B
100
AcDbEntity
100
AcDbLine
  8
VISIBLE
 62
256
370
-1
 48
1.0
  6
BYLAYER
 10
304.1779531103545651
 20
0.574944156380667
 30
0.0
 11
304.1779531103545651
 21
3.574944156380667
 31
0.0
  0
LINE
  5
8C
100
AcDbEntity
100
AcDbLine
  8
VISIBLE
 62
256
370
-1
 48
1.0
  6
BYLAYER
 10
249.256814934354594
 20
270.5452205083806803
 30
0.0
 11
249.256814934354594
 21
255.5452205083806803
 31
0.0
  0
LINE
  5
8D
100
AcDbEntity
100
AcDbLine
  8
VISIBLE
 62
256
370
-1
 48
1.0
  6
BYLAYER
 10
249.256814934354594
 20
229.5452205083806518
 30
0.0
 11
249.256814934354594
 21
214.5452205083806803
 31
0.0
  0
LINE
  5
8E
100
AcDbEntity
100
AcDbLine
  8
VISIBLE
 62
256
370
-1
 48
1.0
  6
BYLAYER
 10
55.2532507385146658
 20
3.4308081794206231
 30
0.0
 11
115.2532507385146516
 21
3.4308081794206231
 31
0.0
  0
LINE
  5
8F
100
AcDbEntity
100
AcDbLine
  8
VISIBLE
 62
256
370
-1
 48
1.0
  6
BYLAYER
 10
490.2313551696528293
 20
282.1551678031690358
 30
0.0
 11
296.2313551696528293
 21
282.1551678031690358
 31
0.0
  0
LINE
  5
90
100
AcDbEntity
100
AcDbLine
  8
VISIBLE
 62
256
370
-1
 48
1.0
  6
BYLAYER
 10
490.5960019432081367
 20
239.9416638375754189
 30
0.0
 11
296.5960019432081367
 21
239.9416638375754189
 31
0.0
  0
LINE
  5
91
100
AcDbEntity
100
AcDbLine
  8
VISIBLE
 62
256
370
-1
 48
1.0
  6
BYLAYER
 10
524.0
 20
2.9999999999999858
 30
0.0
 11
524.0000000000001137
 21
197.0
 31
0.0
  0
LINE
  5
92
100
AcDbEntity
100
AcDbLine
  8
VISIBLE
 62
256
370
-1
 48
1.0
  6
BYLAYER
 10
485.0000000000000568
 20
2.9999999999999858
 30
0.0
 11
485.0000000000001137
 21
197.0
 31
0.0
  0
LINE
  5
93
100
AcDbEntity
100
AcDbLine
  8
VISIBLE
 62
256
370
-1
 48
1.0
  6
BYLAYER
 10
445.6221891252881164
 20
3.0250608838472743
 30
0.0
 11
445.6221891252881733
 21
197.0250608838472886
 31
0.0
  0
LINE
  5
94
100
AcDbEntity
100
AcDbLine
  8
VISIBLE
 62
256
370
-1
 48
1.0
  6
BYLAYER
 10
406.39449248528814
 20
2.8818058438472747
 30
0.0
 11
406.3944924852881968
 21
196.8818058438473031
 31
0.0
  0
LINE
  5
95
100
AcDbEntity
100
AcDbLine
  8
VISIBLE
 62
256
370
-1
 48
1.0
  6
BYLAYER
 10
368.0
 20
92.5
 30
0.0
 11
368.0
 21
0.0
 31
0.0
  0
LINE
  5
96
100
AcDbEntity
100
AcDbLine
  8
VISIBLE
 62
256
370
-1
 48
1.0
  6
BYLAYER
 10
329.1779531103545651
 20
93.074944156380667
 30
0.0
 11
329.1779531103545651
 21
0.574944156380667
 31
0.0
  0
LINE
  5
97
100
AcDbEntity
100
AcDbLine
  8
VISIBLE
 62
256
370
-1
 48
1.0
  6
BYLAYER
 10
41.256814934354594
 20
270.5452205083806803
 30
0.0
 11
44.2568149343544945
 21
270.5452205083806803
 31
0.0
  0
LINE
  5
98
100
AcDbEntity
100
AcDbLine
  8
VISIBLE
 62
256
370
-1
 48
1.0
  6
BYLAYER
 10
41.256814934354594
 20
229.5452205083806518
 30
0.0
 11
44.2568149343544945
 21
229.5452205083806518
 31
0.0
  0
LINE
  5
99
100
AcDbEntity
100
AcDbLine
  8
VISIBLE
 62
256
370
-1
 48
1.0
  6
BYLAYER
 10
167.2532507385145664
 20
65.4308081794206657
 30
0.0
 11
164.2532507385145379
 21
65.4308081794206657
 31
0.0
  0
LINE
  5
9A
100
AcDbEntity
100
AcDbLine
  8
VISIBLE
 62
256
370
-1
 48
1.0
  6
BYLAYER
 10
490.2313551696528293
 20
282.1551678031690358
 30
0.0
 11
490.2313551696528293
 21
247.1551678031689789
 31
0.0
  0
LINE
  5
9B
100
AcDbEntity
100
AcDbLine
  8
VISIBLE
 62
256
370
-1
 48
1.0
  6
BYLAYER
 10
490.5960019432081367
 20
239.9416638375754189
 30
0.0
 11
490.5960019432081367
 21
204.9416638375753621
 31
0.0
  0
LINE
  5
9C
100
AcDbEntity
100
AcDbLine
  8
VISIBLE
 62
256
370
-1
 48
1.0
  6
BYLAYER
 10
524.0
 20
2.9999999999999858
 30
0.0
 11
489.0000000000002274
 21
3.0
 31
0.0
  0
LINE
  5
9D
100
AcDbEntity
100
AcDbLine
  8
VISIBLE
 62
256
370
-1
 48
1.0
  6
BYLAYER
 10
485.0000000000000568
 20
2.9999999999999858
 30
0.0
 11
450.0000000000002274
 21
3.0
 31
0.0
  0
LINE
  5
9E
100
AcDbEntity
100
AcDbLine
  8
VISIBLE
 62
256
370
-1
 48
1.0
  6
BYLAYER
 10
445.6221891252881164
 20
3.0250608838472743
 30
0.0
 11
410.622189125288287
 21
3.0250608838472886
 31
0.0
  0
LINE
  5
9F
100
AcDbEntity
100
AcDbLine
  8
VISIBLE
 62
256
370
-1
 48
1.0
  6
BYLAYER
 10
406.39449248528814
 20
2.8818058438472747
 30
0.0
 11
371.3944924852883105
 21
2.8818058438472889
 31
0.0
  0
LINE
  5
A0
100
AcDbEntity
100
AcDbLine
  8
VISIBLE
 62
256
370
-1
 48
1.0
  6
BYLAYER
 10
333.0
 20
24.9999999999999858
 30
0.0
 11
330.0
 21
24.9999999999999858
 31
0.0
  0
LINE
  5
A1
100
AcDbEntity
100
AcDbLine
  8
VISIBLE
 62
256
370
-1
 48
1.0
  6
BYLAYER
 10
294.1779531103545651
 20
25.5749441563806528
 30
0.0
 11
291.1779531103545651
 21
25.5749441563806528
 31
0.0
  0
LINE
  5
A2
100
AcDbEntity
100
AcDbLine
  8
VISIBLE
 62
256
370
-1
 48
1.0
  6
BYLAYER
 10
208.2568149343546793
 20
270.5452205083806803
 30
0.0
 11
205.2568149343547645
 21
270.5452205083806803
 31
0.0
  0
LINE
  5
A3
100
AcDbEntity
100
AcDbLine
  8
VISIBLE
 62
256
370
-1
 48
1.0
  6
BYLAYER
 10
208.2568149343546793
 20
229.5452205083806518
 30
0.0
 11
205.2568149343547645
 21
229.5452205083806518
 31
0.0
  0
LINE
  5
A4
100
AcDbEntity
100
AcDbLine
  8
VISIBLE
 62
256
370
-1
 48
1.0
  6
BYLAYER
 10
82.2532507385146516
 20
135.4308081794206373
 30
0.0
 11
85.2532507385146801
 21
135.4308081794206373
 31
0.0
  0
LINE
  5
A5
100
AcDbEntity
100
AcDbLine
  8
VISIBLE
 62
256
370
-1
 48
1.0
  6
BYLAYER
 10
490.2313551696528293
 20
247.1551678031689789
 30
0.0
 11
296.2313551696528293
 21
247.1551678031690358
 31
0.0
  0
LINE
  5
A6
100
AcDbEntity
100
AcDbLine
  8
VISIBLE
 62
256
370
-1
 48
1.0
  6
BYLAYER
 10
490.5960019432081367
 20
204.9416638375753621
 30
0.0
 11
296.5960019432081367
 21
204.9416638375754189
 31
0.0
  0
LINE
  5
A7
100
AcDbEntity
100
AcDbLine
  8
VISIBLE
 62
256
370
-1
 48
1.0
  6
BYLAYER
 10
489.0000000000002274
 20
3.0
 30
0.0
 11
489.0000000000002274
 21
197.0
 31
0.0
  0
LINE
  5
A8
100
AcDbEntity
100
AcDbLine
  8
VISIBLE
 62
256
370
-1
 48
1.0
  6
BYLAYER
 10
450.0000000000002274
 20
3.0
 30
0.0
 11
450.0000000000002274
 21
197.0
 31
0.0
  0
LINE
  5
A9
100
AcDbEntity
100
AcDbLine
  8
VISIBLE
 62
256
370
-1
 48
1.0
  6
BYLAYER
 10
410.622189125288287
 20
3.0250608838472886
 30
0.0
 11
410.622189125288287
 21
197.0250608838472886
 31
0.0
  0
LINE
  5
AA
100
AcDbEntity
100
AcDbLine
  8
VISIBLE
 62
256
370
-1
 48
1.0
  6
BYLAYER
 10
371.3944924852883105
 20
2.8818058438472889
 30
0.0
 11
371.3944924852883105
 21
196.8818058438473031
 31
0.0
  0
LINE
  5
AB
100
AcDbEntity
100
AcDbLine
  8
VISIBLE
 62
256
370
-1
 48
1.0
  6
BYLAYER
 10
358.0
 20
0.0
 30
0.0
 11
368.0000000000000568
 21
0.0
 31
0.0
  0
LINE
  5
AC
100
AcDbEntity
100
AcDbLine
  8
VISIBLE
 62
256
370
-1
 48
1.0
  6
BYLAYER
 10
319.1779531103545651
 20
0.574944156380667
 30
0.0
 11
329.1779531103546219
 21
0.574944156380667
 31
0.0
  0
LINE
  5
AD
100
AcDbEntity
100
AcDbLine
  8
VISIBLE
 62
256
370
-1
 48
1.0
  6
BYLAYER
 10
115.256814934354594
 20
242.5452205083806803
 30
0.0
 11
55.256814934354594
 21
242.5452205083806803
 31
0.0
  0
LINE
  5
AE
100
AcDbEntity
100
AcDbLine
  8
VISIBLE
 62
256
370
-1
 48
1.0
  6
BYLAYER
 10
115.256814934354594
 20
201.5452205083806803
 30
0.0
 11
55.256814934354594
 21
201.5452205083806803
 31
0.0
  0
LINE
  5
AF
100
AcDbEntity
100
AcDbLine
  8
VISIBLE
 62
256
370
-1
 48
1.0
  6
BYLAYER
 10
35.2532507385146232
 20
0.4308081794206515
 30
0.0
 11
55.2532507385146658
 21
0.4308081794206515
 31
0.0
  0
LINE
  5
B0
100
AcDbEntity
100
AcDbLine
  8
VISIBLE
 62
256
370
-1
 48
1.0
  6
BYLAYER
 10
293.2313551696528293
 20
272.1551678031689789
 30
0.0
 11
293.2313551696528293
 21
257.1551678031689789
 31
0.0
  0
LINE
  5
B1
100
AcDbEntity
100
AcDbLine
  8
VISIBLE
 62
256
370
-1
 48
1.0
  6
BYLAYER
 10
293.5960019432081367
 20
229.9416638375753621
 30
0.0
 11
293.5960019432081367
 21
214.9416638375753621
 31
0.0
  0
LINE
  5
B2
100
AcDbEntity
100
AcDbLine
  8
VISIBLE
 62
256
370
-1
 48
1.0
  6
BYLAYER
 10
514.0
 20
200.0
 30
0.0
 11
499.0
 21
200.0
 31
0.0
  0
LINE
  5
B3
100
AcDbEntity
100
AcDbLine
  8
VISIBLE
 62
256
370
-1
 48
1.0
  6
BYLAYER
 10
475.0000000000000568
 20
200.0
 30
0.0
 11
460.0
 21
200.0
 31
0.0
  0
LINE
  5
B4
100
AcDbEntity
100
AcDbLine
  8
VISIBLE
 62
256
370
-1
 48
1.0
  6
BYLAYER
 10
435.6221891252881164
 20
200.0250608838472886
 30
0.0
 11
420.6221891252880596
 21
200.0250608838472886
 31
0.0
  0
LINE
  5
B5
100
AcDbEntity
100
AcDbLine
  8
VISIBLE
 62
256
370
-1
 48
1.0
  6
BYLAYER
 10
396.39449248528814
 20
199.8818058438473031
 30
0.0
 11
381.3944924852880831
 21
199.8818058438473031
 31
0.0
  0
LINE
  5
B6
100
AcDbEntity
100
AcDbLine
  8
VISIBLE
 62
256
370
-1
 48
1.0
  6
BYLAYER
 10
368.0
 20
92.5
 30
0.0
 11
371.0
 21
92.5
 31
0.0
  0
LINE
  5
B7
100
AcDbEntity
100
AcDbLine
  8
VISIBLE
 62
256
370
-1
 48
1.0
  6
BYLAYER
 10
329.1779531103545651
 20
93.074944156380667
 30
0.0
 11
332.1779531103545651
 21
93.074944156380667
 31
0.0
  0
LINE
  5
B8
100
AcDbEntity
100
AcDbLine
  8
VISIBLE
 62
256
370
-1
 48
1.0
  6
BYLAYER
 10
3.256814934354594
 20
255.5452205083806803
 30
0.0
 11
3.256814934354594
 21
245.5452205083806803
 31
0.0
  0
LINE
  5
B9
100
AcDbEntity
100
AcDbLine
  8
VISIBLE
 62
256
370
-1
 48
1.0
  6
BYLAYER
 10
3.256814934354594
 20
214.5452205083806803
 30
0.0
 11
3.256814934354594
 21
204.5452205083806803
 31
0.0
  0
LINE
  5
BA
100
AcDbEntity
100
AcDbLine
  8
VISIBLE
 62
256
370
-1
 48
1.0
  6
BYLAYER
 10
44.2532507385146232
 20
30.4308081794206657
 30
0.0
 11
44.2532507385146232
 21
65.4308081794206657
 31
0.0
  0
LINE
  5
BB
100
AcDbEntity
100
AcDbLine
  8
VISIBLE
 62
256
370
-1
 48
1.0
  6
BYLAYER
 10
463.2313551696528293
 20
244.1551678031689789
 30
0.0
 11
428.2313551696528293
 21
244.1551678031689789
 31
0.0
  0
LINE
  5
BC
100
AcDbEntity
100
AcDbLine
  8
VISIBLE
 62
256
370
-1
 48
1.0
  6
BYLAYER
 10
463.5960019432081367
 20
201.9416638375753621
 30
0.0
 11
428.5960019432081367
 21
201.9416638375753621
 31
0.0
  0
LINE
  5
BD
100
AcDbEntity
100
AcDbLine
  8
VISIBLE
 62
256
370
-1
 48
1.0
  6
BYLAYER
 10
486.0
 20
30.0
 30
0.0
 11
486.0
 21
65.0
 31
0.0
  0
LINE
  5
BE
100
AcDbEntity
100
AcDbLine
  8
VISIBLE
 62
256
370
-1
 48
1.0
  6
BYLAYER
 10
447.0
 20
30.0
 30
0.0
 11
447.0
 21
65.0
 31
0.0
  0
LINE
  5
BF
100
AcDbEntity
100
AcDbLine
  8
VISIBLE
 62
256
370
-1
 48
1.0
  6
BYLAYER
 10
407.6221891252880596
 20
30.0250608838472886
 30
0.0
 11
407.6221891252880596
 21
65.0250608838472886
 31
0.0
  0
LINE
  5
C0
100
AcDbEntity
100
AcDbLine
  8
VISIBLE
 62
256
370
-1
 48
1.0
  6
BYLAYER
 10
368.3944924852880831
 20
29.8818058438472889
 30
0.0
 11
368.3944924852880831
 21
64.8818058438472889
 31
0.0
  0
LINE
  5
C1
100
AcDbEntity
100
AcDbLine
  8
VISIBLE
 62
256
370
-1
 48
1.0
  6
BYLAYER
 10
333.0
 20
125.0
 30
0.0
 11
333.0
 21
75.0
 31
0.0
  0
LINE
  5
C2
100
AcDbEntity
100
AcDbLine
  8
VISIBLE
 62
256
370
-1
 48
1.0
  6
BYLAYER
 10
294.1779531103545651
 20
125.574944156380667
 30
0.0
 11
294.1779531103545651
 21
75.574944156380667
 31
0.0
  0
LINE
  5
C3
100
AcDbEntity
100
AcDbLine
  8
VISIBLE
 62
256
370
-1
 48
1.0
  6
BYLAYER
 10
167.2568149343547645
 20
270.5452205083806803
 30
0.0
 11
167.2568149343547645
 21
255.5452205083806803
 31
0.0
  0
LINE
  5
C4
100
AcDbEntity
100
AcDbLine
  8
VISIBLE
 62
256
370
-1
 48
1.0
  6
BYLAYER
 10
167.2568149343547645
 20
229.5452205083806518
 30
0.0
 11
167.2568149343547645
 21
214.5452205083806803
 31
0.0
  0
LINE
  5
C5
100
AcDbEntity
100
AcDbLine
  8
VISIBLE
 62
256
370
-1
 48
1.0
  6
BYLAYER
 10
290.2532507385146232
 20
107.9308081794206231
 30
0.0
 11
290.2532507385146232
 21
125.4308081794206373
 31
0.0
  0
LINE
  5
C6
100
AcDbEntity
100
AcDbLine
  8
VISIBLE
 62
256
370
-1
 48
1.0
  6
BYLAYER
 10
296.2313551696528293
 20
282.1551678031690358
 30
0.0
 11
296.2313551696528293
 21
247.1551678031690358
 31
0.0
  0
LINE
  5
C7
100
AcDbEntity
100
AcDbLine
  8
VISIBLE
 62
256
370
-1
 48
1.0
  6
BYLAYER
 10
296.5960019432081367
 20
239.9416638375754189
 30
0.0
 11
296.5960019432081367
 21
204.9416638375754189
 31
0.0
  0
LINE
  5
C8
100
AcDbEntity
100
AcDbLine
  8
VISIBLE
 62
256
370
-1
 48
1.0
  6
BYLAYER
 10
524.0000000000001137
 20
197.0
 30
0.0
 11
489.0000000000002274
 21
197.0
 31
0.0
  0
LINE
  5
C9
100
AcDbEntity
100
AcDbLine
  8
VISIBLE
 62
256
370
-1
 48
1.0
  6
BYLAYER
 10
485.0000000000001137
 20
197.0
 30
0.0
 11
450.0000000000002274
 21
197.0
 31
0.0
  0
LINE
  5
CA
100
AcDbEntity
100
AcDbLine
  8
VISIBLE
 62
256
370
-1
 48
1.0
  6
BYLAYER
 10
445.6221891252881733
 20
197.0250608838472886
 30
0.0
 11
410.622189125288287
 21
197.0250608838472886
 31
0.0
  0
LINE
  5
CB
100
AcDbEntity
100
AcDbLine
  8
VISIBLE
 62
256
370
-1
 48
1.0
  6
BYLAYER
 10
406.3944924852881968
 20
196.8818058438473031
 30
0.0
 11
371.3944924852883105
 21
196.8818058438473031
 31
0.0
  0
LINE
  5
CC
100
AcDbEntity
100
AcDbLine
  8
VISIBLE
 62
256
370
-1
 48
1.0
  6
BYLAYER
 10
368.0000000000000568
 20
200.0
 30
0.0
 11
368.0
 21
107.5
 31
0.0
  0
LINE
  5
CD
100
AcDbEntity
100
AcDbLine
  8
VISIBLE
 62
256
370
-1
 48
1.0
  6
BYLAYER
 10
329.1779531103546219
 20
200.574944156380667
 30
0.0
 11
329.1779531103545651
 21
108.074944156380667
 31
0.0
  0
LINE
  5
CE
100
AcDbEntity
100
AcDbLine
  8
VISIBLE
 62
256
370
-1
 48
1.0
  6
BYLAYER
 10
235.256814934354594
 20
245.5452205083806803
 30
0.0
 11
235.256814934354594
 21
242.5452205083806803
 31
0.0
  0
LINE
  5
CF
100
AcDbEntity
100
AcDbLine
  8
VISIBLE
 62
256
370
-1
 48
1.0
  6
BYLAYER
 10
235.256814934354594
 20
204.5452205083806803
 30
0.0
 11
235.256814934354594
 21
201.5452205083806803
 31
0.0
  0
LINE
  5
D0
100
AcDbEntity
100
AcDbLine
  8
VISIBLE
 62
256
370
-1
 48
1.0
  6
BYLAYER
 10
115.2532507385146516
 20
200.4308081794206373
 30
0.0
 11
135.2532507385145948
 21
200.4308081794206373
 31
0.0
  0
LINE
  5
D1
100
AcDbEntity
100
AcDbLine
  8
VISIBLE
 62
256
370
-1
 48
1.0
  6
BYLAYER
 10
493.2313551696528293
 20
257.1551678031689789
 30
0.0
 11
490.2313551696528293
 21
257.1551678031689789
 31
0.0
  0
LINE
  5
D2
100
AcDbEntity
100
AcDbLine
  8
VISIBLE
 62
256
370
-1
 48
1.0
  6
BYLAYER
 10
493.5960019432081367
 20
214.9416638375753621
 30
0.0
 11
490.5960019432081367
 21
214.9416638375753621
 31
0.0
  0
LINE
  5
D3
100
AcDbEntity
100
AcDbLine
  8
VISIBLE
 62
256
370
-1
 48
1.0
  6
BYLAYER
 10
498.9999999999999432
 20
0.0
 30
0.0
 11
499.0
 21
3.0
 31
0.0
  0
LINE
  5
D4
100
AcDbEntity
100
AcDbLine
  8
VISIBLE
 62
256
370
-1
 48
1.0
  6
BYLAYER
 10
459.9999999999999432
 20
0.0
 30
0.0
 11
460.0
 21
3.0
 31
0.0
  0
LINE
  5
D5
100
AcDbEntity
100
AcDbLine
  8
VISIBLE
 62
256
370
-1
 48
1.0
  6
BYLAYER
 10
420.6221891252880027
 20
0.0250608838472886
 30
0.0
 11
420.6221891252880596
 21
3.0250608838472886
 31
0.0
  0
LINE
  5
D6
100
AcDbEntity
100
AcDbLine
  8
VISIBLE
 62
256
370
-1
 48
1.0
  6
BYLAYER
 10
381.3944924852880263
 20
-0.1181941561527111
 30
0.0
 11
381.3944924852880831
 21
2.8818058438472889
 31
0.0
  0
LINE
  5
D7
100
AcDbEntity
100
AcDbLine
  8
VISIBLE
 62
256
370
-1
 48
1.0
  6
BYLAYER
 10
368.0
 20
107.5
 30
0.0
 11
371.0
 21
107.5
 31
0.0
  0
LINE
  5
D8
100
AcDbEntity
100
AcDbLine
  8
VISIBLE
 62
256
370
-1
 48
1.0
  6
BYLAYER
 10
329.1779531103545651
 20
108.074944156380667
 30
0.0
 11
332.1779531103545651
 21
108.074944156380667
 31
0.0
  0
LINE
  5
D9
100
AcDbEntity
100
AcDbLine
  8
VISIBLE
 62
256
370
-1
 48
1.0
  6
BYLAYER
 10
82.2568149343545088
 20
270.5452205083806803
 30
0.0
 11
85.2568149343544235
 21
270.5452205083806803
 31
0.0
  0
LINE
  5
DA
100
AcDbEntity
100
AcDbLine
  8
VISIBLE
 62
256
370
-1
 48
1.0
  6
BYLAYER
 10
82.2568149343545088
 20
229.5452205083806518
 30
0.0
 11
85.2568149343544235
 21
229.5452205083806518
 31
0.0
  0
LINE
  5
DB
100
AcDbEntity
100
AcDbLine
  8
VISIBLE
 62
256
370
-1
 48
1.0
  6
BYLAYER
 10
115.2532507385146516
 20
0.4308081794206515
 30
0.0
 11
135.2532507385145948
 21
0.4308081794206515
 31
0.0
  0
LINE
  5
DC
100
AcDbEntity
100
AcDbLine
  8
VISIBLE
 62
256
370
-1
 48
1.0
  6
BYLAYER
 10
323.2313551696528293
 20
247.1551678031689789
 30
0.0
 11
323.2313551696528293
 21
244.1551678031689789
 31
0.0
  0
LINE
  5
DD
100
AcDbEntity
100
AcDbLine
  8
VISIBLE
 62
256
370
-1
 48
1.0
  6
BYLAYER
 10
323.5960019432081367
 20
204.9416638375753621
 30
0.0
 11
323.5960019432081367
 21
201.9416638375753621
 31
0.0
  0
LINE
  5
DE
100
AcDbEntity
100
AcDbLine
  8
VISIBLE
 62
256
370
-1
 48
1.0
  6
BYLAYER
 10
489.0
 20
170.0
 30
0.0
 11
486.0
 21
170.0
 31
0.0
  0
LINE
  5
DF
100
AcDbEntity
100
AcDbLine
  8
VISIBLE
 62
256
370
-1
 48
1.0
  6
BYLAYER
 10
450.0
 20
170.0
 30
0.0
 11
447.0
 21
170.0
 31
0.0
  0
LINE
  5
E0
100
AcDbEntity
100
AcDbLine
  8
VISIBLE
 62
256
370
-1
 48
1.0
  6
BYLAYER
 10
410.6221891252880596
 20
170.0250608838472886
 30
0.0
 11
407.6221891252880596
 21
170.0250608838472886
 31
0.0
  0
LINE
  5
E1
100
AcDbEntity
100
AcDbLine
  8
VISIBLE
 62
256
370
-1
 48
1.0
  6
BYLAYER
 10
371.3944924852880831
 20
169.8818058438473031
 30
0.0
 11
368.3944924852880831
 21
169.8818058438473031
 31
0.0
  0
LINE
  5
E2
100
AcDbEntity
100
AcDbLine
  8
VISIBLE
 62
256
370
-1
 48
1.0
  6
BYLAYER
 10
330.0
 20
125.0000000000000142
 30
0.0
 11
330.0
 21
175.0
 31
0.0
  0
LINE
  5
E3
100
AcDbEntity
100
AcDbLine
  8
VISIBLE
 62
256
370
-1
 48
1.0
  6
BYLAYER
 10
291.1779531103545651
 20
125.5749441563806812
 30
0.0
 11
291.1779531103545651
 21
175.5749441563806954
 31
0.0
  0
LINE
  5
E4
100
AcDbEntity
100
AcDbLine
  8
VISIBLE
 62
256
370
-1
 48
1.0
  6
BYLAYER
 10
290.2568149343545656
 20
255.5452205083806803
 30
0.0
 11
290.2568149343545656
 21
270.5452205083806234
 31
0.0
  0
LINE
  5
E5
100
AcDbEntity
100
AcDbLine
  8
VISIBLE
 62
256
370
-1
 48
1.0
  6
BYLAYER
 10
290.2568149343545656
 20
214.5452205083806803
 30
0.0
 11
290.2568149343545656
 21
229.5452205083806234
 31
0.0
  0
LINE
  5
E6
100
AcDbEntity
100
AcDbLine
  8
VISIBLE
 62
256
370
-1
 48
1.0
  6
BYLAYER
 10
41.2532507385146232
 20
170.4308081794206373
 30
0.0
 11
41.2532507385146232
 21
135.4308081794206373
 31
0.0
  0
LINE
  5
E7
100
AcDbEntity
100
AcDbLine
  8
VISIBLE
 62
256
370
-1
 48
1.0
  6
BYLAYER
 10
293.2313551696528293
 20
257.1551678031689789
 30
0.0
 11
296.2313551696528293
 21
257.1551678031689789
 31
0.0
  0
LINE
  5
E8
100
AcDbEntity
100
AcDbLine
  8
VISIBLE
 62
256
370
-1
 48
1.0
  6
BYLAYER
 10
293.5960019432081367
 20
214.9416638375753621
 30
0.0
 11
296.5960019432081367
 21
214.9416638375753621
 31
0.0
  0
LINE
  5
E9
100
AcDbEntity
100
AcDbLine
  8
VISIBLE
 62
256
370
-1
 48
1.0
  6
BYLAYER
 10
499.0
 20
200.0
 30
0.0
 11
499.0000000000000568
 21
197.0
 31
0.0
  0
LINE
  5
EA
100
AcDbEntity
100
AcDbLine
  8
VISIBLE
 62
256
370
-1
 48
1.0
  6
BYLAYER
 10
460.0
 20
200.0
 30
0.0
 11
460.0000000000000568
 21
197.0
 31
0.0
  0
LINE
  5
EB
100
AcDbEntity
100
AcDbLine
  8
VISIBLE
 62
256
370
-1
 48
1.0
  6
BYLAYER
 10
420.6221891252880596
 20
200.0250608838472886
 30
0.0
 11
420.6221891252881164
 21
197.0250608838472886
 31
0.0
  0
LINE
  5
EC
100
AcDbEntity
100
AcDbLine
  8
VISIBLE
 62
256
370
-1
 48
1.0
  6
BYLAYER
 10
381.3944924852880831
 20
199.8818058438473031
 30
0.0
 11
381.39449248528814
 21
196.8818058438472747
 31
0.0
  0
LINE
  5
ED
100
AcDbEntity
100
AcDbLine
  8
VISIBLE
 62
256
370
-1
 48
1.0
  6
BYLAYER
 10
343.0
 20
200.0
 30
0.0
 11
343.0
 21
197.0
 31
0.0
  0
LINE
  5
EE
100
AcDbEntity
100
AcDbLine
  8
VISIBLE
 62
256
370
-1
 48
1.0
  6
BYLAYER
 10
304.1779531103545651
 20
200.574944156380667
 30
0.0
 11
304.1779531103545651
 21
197.574944156380667
 31
0.0
  0
LINE
  5
EF
100
AcDbEntity
100
AcDbLine
  8
VISIBLE
 62
256
370
-1
 48
1.0
  6
BYLAYER
 10
167.2568149343547645
 20
255.5452205083806803
 30
0.0
 11
164.2568149343548498
 21
255.5452205083806803
 31
0.0
  0
LINE
  5
F0
100
AcDbEntity
100
AcDbLine
  8
VISIBLE
 62
256
370
-1
 48
1.0
  6
BYLAYER
 10
167.2568149343547645
 20
214.5452205083806803
 30
0.0
 11
164.2568149343548498
 21
214.5452205083806803
 31
0.0
  0
LINE
  5
F1
100
AcDbEntity
100
AcDbLine
  8
VISIBLE
 62
256
370
-1
 48
1.0
  6
BYLAYER
 10
3.2532507385146232
 20
92.9308081794206799
 30
0.0
 11
3.2532507385146232
 21
107.9308081794206231
 31
0.0
  0
LINE
  5
F2
100
AcDbEntity
100
AcDbLine
  8
VISIBLE
 62
256
370
-1
 48
1.0
  6
BYLAYER
 10
293.2313551696528293
 20
272.1551678031689789
 30
0.0
 11
296.2313551696528293
 21
272.1551678031689789
 31
0.0
  0
LINE
  5
F3
100
AcDbEntity
100
AcDbLine
  8
VISIBLE
 62
256
370
-1
 48
1.0
  6
BYLAYER
 10
293.5960019432081367
 20
229.9416638375753621
 30
0.0
 11
296.5960019432081367
 21
229.9416638375753621
 31
0.0
  0
LINE
  5
F4
100
AcDbEntity
100
AcDbLine
  8
VISIBLE
 62
256
370
-1
 48
1.0
  6
BYLAYER
 10
514.0
 20
200.0
 30
0.0
 11
514.0
 21
197.0
 31
0.0
  0
LINE
  5
F5
100
AcDbEntity
100
AcDbLine
  8
VISIBLE
 62
256
370
-1
 48
1.0
  6
BYLAYER
 10
475.0000000000000568
 20
200.0
 30
0.0
 11
475.0
 21
197.0
 31
0.0
  0
LINE
  5
F6
100
AcDbEntity
100
AcDbLine
  8
VISIBLE
 62
256
370
-1
 48
1.0
  6
BYLAYER
 10
435.6221891252881164
 20
200.0250608838472886
 30
0.0
 11
435.6221891252880596
 21
197.0250608838472886
 31
0.0
  0
LINE
  5
F7
100
AcDbEntity
100
AcDbLine
  8
VISIBLE
 62
256
370
-1
 48
1.0
  6
BYLAYER
 10
396.39449248528814
 20
199.8818058438473031
 30
0.0
 11
396.3944924852880831
 21
196.8818058438473031
 31
0.0
  0
LINE
  5
F8
100
AcDbEntity
100
AcDbLine
  8
VISIBLE
 62
256
370
-1
 48
1.0
  6
BYLAYER
 10
333.0
 20
125.0
 30
0.0
 11
330.0
 21
125.0
 31
0.0
  0
LINE
  5
F9
100
AcDbEntity
100
AcDbLine
  8
VISIBLE
 62
256
370
-1
 48
1.0
  6
BYLAYER
 10
294.1779531103545651
 20
125.574944156380667
 30
0.0
 11
291.1779531103545651
 21
125.574944156380667
 31
0.0
  0
LINE
  5
FA
100
AcDbEntity
100
AcDbLine
  8
VISIBLE
 62
256
370
-1
 48
1.0
  6
BYLAYER
 10
3.256814934354594
 20
280.5452205083806803
 30
0.0
 11
3.256814934354594
 21
270.5452205083806234
 31
0.0
  0
LINE
  5
FB
100
AcDbEntity
100
AcDbLine
  8
VISIBLE
 62
256
370
-1
 48
1.0
  6
BYLAYER
 10
3.256814934354594
 20
239.5452205083807087
 30
0.0
 11
3.256814934354594
 21
229.5452205083806234
 31
0.0
  0
LINE
  5
FC
100
AcDbEntity
100
AcDbLine
  8
VISIBLE
 62
256
370
-1
 48
1.0
  6
BYLAYER
 10
246.2532507385145095
 20
30.4308081794206657
 30
0.0
 11
246.2532507385145095
 21
65.4308081794206657
 31
0.0
  0
LINE
  5
FD
100
AcDbEntity
100
AcDbLine
  8
VISIBLE
 62
256
370
-1
 48
1.0
  6
BYLAYER
 10
358.2313551696528293
 20
244.1551678031689789
 30
0.0
 11
323.2313551696528293
 21
244.1551678031689789
 31
0.0
  0
LINE
  5
FE
100
AcDbEntity
100
AcDbLine
  8
VISIBLE
 62
256
370
-1
 48
1.0
  6
BYLAYER
 10
358.5960019432081367
 20
201.9416638375753621
 30
0.0
 11
323.5960019432081367
 21
201.9416638375753621
 31
0.0
  0
LINE
  5
FF
100
AcDbEntity
100
AcDbLine
  8
VISIBLE
 62
256
370
-1
 48
1.0
  6
BYLAYER
 10
486.0
 20
135.0
 30
0.0
 11
486.0
 21
170.0
 31
0.0
  0
LINE
  5
100
100
AcDbEntity
100
AcDbLine
  8
VISIBLE
 62
256
370
-1
 48
1.0
  6
BYLAYER
 10
447.0
 20
135.0
 30
0.0
 11
447.0
 21
170.0
 31
0.0
  0
LINE
  5
101
100
AcDbEntity
100
AcDbLine
  8
VISIBLE
 62
256
370
-1
 48
1.0
  6
BYLAYER
 10
407.6221891252880596
 20
135.0250608838472886
 30
0.0
 11
407.6221891252880596
 21
170.0250608838472886
 31
0.0
  0
LINE
  5
102
100
AcDbEntity
100
AcDbLine
  8
VISIBLE
 62
256
370
-1
 48
1.0
  6
BYLAYER
 10
368.3944924852880831
 20
134.8818058438473031
 30
0.0
 11
368.3944924852880831
 21
169.8818058438473031
 31
0.0
  0
LINE
  5
103
100
AcDbEntity
100
AcDbLine
  8
VISIBLE
 62
256
370
-1
 48
1.0
  6
BYLAYER
 10
358.0
 20
200.0
 30
0.0
 11
358.0
 21
197.0
 31
0.0
  0
LINE
  5
104
100
AcDbEntity
100
AcDbLine
  8
VISIBLE
 62
256
370
-1
 48
1.0
  6
BYLAYER
 10
319.1779531103545651
 20
200.574944156380667
 30
0.0
 11
319.1779531103545651
 21
197.574944156380667
 31
0.0
  0
LINE
  5
105
100
AcDbEntity
100
AcDbLine
  8
VISIBLE
 62
256
370
-1
 48
1.0
  6
BYLAYER
 10
0.256814934354594
 20
255.5452205083807087
 30
0.0
 11
3.256814934354594
 21
255.5452205083807087
 31
0.0
  0
LINE
  5
106
100
AcDbEntity
100
AcDbLine
  8
VISIBLE
 62
256
370
-1
 48
1.0
  6
BYLAYER
 10
0.256814934354594
 20
214.5452205083807087
 30
0.0
 11
3.256814934354594
 21
214.5452205083807087
 31
0.0
  0
LINE
  5
107
100
AcDbEntity
100
AcDbLine
  8
VISIBLE
 62
256
370
-1
 48
1.0
  6
BYLAYER
 10
20.2532507385146232
 20
197.4308081794206942
 30
0.0
 11
35.2532507385146232
 21
197.4308081794206942
 31
0.0
  0
LINE
  5
108
100
AcDbEntity
100
AcDbLine
  8
VISIBLE
 62
256
370
-1
 48
1.0
  6
BYLAYER
 10
333.0
 20
0.0
 30
0.0
 11
343.0
 21
0.0
 31
0.0
  0
LINE
  5
109
100
AcDbEntity
100
AcDbLine
  8
VISIBLE
 62
256
370
-1
 48
1.0
  6
BYLAYER
 10
294.1779531103545651
 20
0.574944156380667
 30
0.0
 11
304.1779531103545651
 21
0.574944156380667
 31
0.0
  0
LINE
  5
10A
100
AcDbEntity
100
AcDbLine
  8
VISIBLE
 62
256
370
-1
 48
1.0
  6
BYLAYER
 10
55.256814934354594
 20
245.5452205083806803
 30
0.0
 11
55.256814934354594
 21
242.5452205083806803
 31
0.0
  0
LINE
  5
10B
100
AcDbEntity
100
AcDbLine
  8
VISIBLE
 62
256
370
-1
 48
1.0
  6
BYLAYER
 10
55.256814934354594
 20
204.5452205083806803
 30
0.0
 11
55.256814934354594
 21
201.5452205083806803
 31
0.0
  0
LINE
  5
10C
100
AcDbEntity
100
AcDbLine
  8
VISIBLE
 62
256
370
-1
 48
1.0
  6
BYLAYER
 10
270.2532507385146232
 20
200.4308081794206373
 30
0.0
 11
270.2532507385146232
 21
197.4308081794206942
 31
0.0
  0
LINE
  5
10D
100
AcDbEntity
100
AcDbLine
  8
VISIBLE
 62
256
370
-1
 48
1.0
  6
BYLAYER
 10
358.0
 20
197.0
 30
0.0
 11
343.0
 21
197.0
 31
0.0
  0
LINE
  5
10E
100
AcDbEntity
100
AcDbLine
  8
VISIBLE
 62
256
370
-1
 48
1.0
  6
BYLAYER
 10
319.1779531103545651
 20
197.574944156380667
 30
0.0
 11
304.1779531103545651
 21
197.574944156380667
 31
0.0
  0
LINE
  5
10F
100
AcDbEntity
100
AcDbLine
  8
VISIBLE
 62
256
370
-1
 48
1.0
  6
BYLAYER
 10
287.2568149343545656
 20
280.5452205083806803
 30
0.0
 11
287.2568149343545656
 21
270.5452205083806234
 31
0.0
  0
LINE
  5
110
100
AcDbEntity
100
AcDbLine
  8
VISIBLE
 62
256
370
-1
 48
1.0
  6
BYLAYER
 10
287.2568149343545656
 20
239.5452205083807087
 30
0.0
 11
287.2568149343545656
 21
229.5452205083806234
 31
0.0
  0
LINE
  5
111
100
AcDbEntity
100
AcDbLine
  8
VISIBLE
 62
256
370
-1
 48
1.0
  6
BYLAYER
 10
85.2532507385146801
 20
30.4308081794206657
 30
0.0
 11
85.2532507385146801
 21
65.4308081794206657
 31
0.0
  0
LINE
  5
112
100
AcDbEntity
100
AcDbLine
  8
VISIBLE
 62
256
370
-1
 48
1.0
  6
BYLAYER
 10
358.0
 20
0.0
 30
0.0
 11
358.0
 21
3.0
 31
0.0
  0
LINE
  5
113
100
AcDbEntity
100
AcDbLine
  8
VISIBLE
 62
256
370
-1
 48
1.0
  6
BYLAYER
 10
319.1779531103545651
 20
0.574944156380667
 30
0.0
 11
319.1779531103545651
 21
3.574944156380667
 31
0.0
  0
LINE
  5
114
100
AcDbEntity
100
AcDbLine
  8
VISIBLE
 62
256
370
-1
 48
1.0
  6
BYLAYER
 10
290.2568149343545656
 20
255.5452205083806803
 30
0.0
 11
287.2568149343545656
 21
255.5452205083806803
 31
0.0
  0
LINE
  5
115
100
AcDbEntity
100
AcDbLine
  8
VISIBLE
 62
256
370
-1
 48
1.0
  6
BYLAYER
 10
290.2568149343545656
 20
214.5452205083806803
 30
0.0
 11
287.2568149343545656
 21
214.5452205083806803
 31
0.0
  0
LINE
  5
116
100
AcDbEntity
100
AcDbLine
  8
VISIBLE
 62
256
370
-1
 48
1.0
  6
BYLAYER
 10
35.2532507385146232
 20
0.4308081794206515
 30
0.0
 11
35.2532507385146232
 21
3.4308081794206231
 31
0.0
  0
LINE
  5
117
100
AcDbEntity
100
AcDbLine
  8
VISIBLE
 62
256
370
-1
 48
1.0
  6
BYLAYER
 10
358.0
 20
3.0
 30
0.0
 11
343.0
 21
3.0
 31
0.0
  0
LINE
  5
118
100
AcDbEntity
100
AcDbLine
  8
VISIBLE
 62
256
370
-1
 48
1.0
  6
BYLAYER
 10
319.1779531103545651
 20
3.574944156380667
 30
0.0
 11
304.1779531103545651
 21
3.574944156380667
 31
0.0
  0
LINE
  5
119
100
AcDbEntity
100
AcDbLine
  8
VISIBLE
 62
256
370
-1
 48
1.0
  6
BYLAYER
 10
0.256814934354594
 20
255.5452205083806803
 30
0.0
 11
0.256814934354594
 21
270.5452205083806234
 31
0.0
  0
LINE
  5
11A
100
AcDbEntity
100
AcDbLine
  8
VISIBLE
 62
256
370
-1
 48
1.0
  6
BYLAYER
 10
0.256814934354594
 20
214.5452205083806803
 30
0.0
 11
0.256814934354594
 21
229.5452205083806234
 31
0.0
  0
LINE
  5
11B
100
AcDbEntity
100
AcDbLine
  8
VISIBLE
 62
256
370
-1
 48
1.0
  6
BYLAYER
 10
155.2532507385146232
 20
0.4308081794206515
 30
0.0
 11
155.2532507385146232
 21
3.4308081794206231
 31
0.0
  0
LINE
  5
11C
100
AcDbEntity
100
AcDbLine
  8
VISIBLE
 62
256
370
-1
 48
1.0
  6
BYLAYER
 10
358.0
 20
200.0
 30
0.0
 11
368.0000000000000568
 21
200.0
 31
0.0
  0
LINE
  5
11D
100
AcDbEntity
100
AcDbLine
  8
VISIBLE
 62
256
370
-1
 48
1.0
  6
BYLAYER
 10
319.1779531103545651
 20
200.574944156380667
 30
0.0
 11
329.1779531103546219
 21
200.574944156380667
 31
0.0
  0
LINE
  5
11E
100
AcDbEntity
100
AcDbLine
  8
VISIBLE
 62
256
370
-1
 48
1.0
  6
BYLAYER
 10
235.256814934354594
 20
242.5452205083806803
 30
0.0
 11
175.256814934354594
 21
242.5452205083806803
 31
0.0
  0
LINE
  5
11F
100
AcDbEntity
100
AcDbLine
  8
VISIBLE
 62
256
370
-1
 48
1.0
  6
BYLAYER
 10
235.256814934354594
 20
201.5452205083806803
 30
0.0
 11
175.256814934354594
 21
201.5452205083806803
 31
0.0
  0
LINE
  5
120
100
AcDbEntity
100
AcDbLine
  8
VISIBLE
 62
256
370
-1
 48
1.0
  6
BYLAYER
 10
164.2532507385145379
 20
30.4308081794206657
 30
0.0
 11
164.2532507385145379
 21
65.4308081794206657
 31
0.0
  0
LINE
  5
121
100
AcDbEntity
100
AcDbLine
  8
VISIBLE
 62
256
370
-1
 48
1.0
  6
BYLAYER
 10
333.0
 20
200.0
 30
0.0
 11
333.0
 21
175.0
 31
0.0
  0
LINE
  5
122
100
AcDbEntity
100
AcDbLine
  8
VISIBLE
 62
256
370
-1
 48
1.0
  6
BYLAYER
 10
294.1779531103545651
 20
200.574944156380667
 30
0.0
 11
294.1779531103545651
 21
175.5749441563806954
 31
0.0
  0
LINE
  5
123
100
AcDbEntity
100
AcDbLine
  8
VISIBLE
 62
256
370
-1
 48
1.0
  6
BYLAYER
 10
287.2568149343545656
 20
255.5452205083806803
 30
0.0
 11
287.2568149343545656
 21
245.5452205083806803
 31
0.0
  0
LINE
  5
124
100
AcDbEntity
100
AcDbLine
  8
VISIBLE
 62
256
370
-1
 48
1.0
  6
BYLAYER
 10
287.2568149343545656
 20
214.5452205083806803
 30
0.0
 11
287.2568149343545656
 21
204.5452205083806803
 31
0.0
  0
LINE
  5
125
100
AcDbEntity
100
AcDbLine
  8
VISIBLE
 62
256
370
-1
 48
1.0
  6
BYLAYER
 10
0.2532507385146232
 20
175.4308081794206373
 30
0.0
 11
3.2532507385147369
 21
175.4308081794206373
 31
0.0
  0
LINE
  5
126
100
AcDbEntity
100
AcDbLine
  8
VISIBLE
 62
256
370
-1
 48
1.0
  6
BYLAYER
 10
330.0
 20
24.9999999999999858
 30
0.0
 11
330.0
 21
75.0
 31
0.0
  0
LINE
  5
127
100
AcDbEntity
100
AcDbLine
  8
VISIBLE
 62
256
370
-1
 48
1.0
  6
BYLAYER
 10
291.1779531103545651
 20
25.5749441563806528
 30
0.0
 11
291.1779531103545651
 21
75.574944156380667
 31
0.0
  0
LINE
  5
128
100
AcDbEntity
100
AcDbLine
  8
VISIBLE
 62
256
370
-1
 48
1.0
  6
BYLAYER
 10
155.256814934354594
 20
280.5452205083806803
 30
0.0
 11
155.256814934354594
 21
283.5452205083806803
 31
0.0
  0
LINE
  5
129
100
AcDbEntity
100
AcDbLine
  8
VISIBLE
 62
256
370
-1
 48
1.0
  6
BYLAYER
 10
155.256814934354594
 20
239.5452205083806803
 30
0.0
 11
155.256814934354594
 21
242.5452205083806803
 31
0.0
  0
LINE
  5
12A
100
AcDbEntity
100
AcDbLine
  8
VISIBLE
 62
256
370
-1
 48
1.0
  6
BYLAYER
 10
235.2532507385146232
 20
3.4308081794206231
 30
0.0
 11
235.2532507385146232
 21
0.4308081794206515
 31
0.0
  0
LINE
  5
12B
100
AcDbEntity
100
AcDbLine
  8
VISIBLE
 62
256
370
-1
 48
1.0
  6
BYLAYER
 10
333.0
 20
24.9999999999999858
 30
0.0
 11
333.0
 21
0.0
 31
0.0
  0
LINE
  5
12C
100
AcDbEntity
100
AcDbLine
  8
VISIBLE
 62
256
370
-1
 48
1.0
  6
BYLAYER
 10
294.1779531103545651
 20
25.5749441563806528
 30
0.0
 11
294.1779531103545651
 21
0.574944156380667
 31
0.0
  0
LINE
  5
12D
100
AcDbEntity
100
AcDbLine
  8
VISIBLE
 62
256
370
-1
 48
1.0
  6
BYLAYER
 10
135.256814934354594
 20
283.5452205083806803
 30
0.0
 11
135.256814934354594
 21
280.5452205083806803
 31
0.0
  0
LINE
  5
12E
100
AcDbEntity
100
AcDbLine
  8
VISIBLE
 62
256
370
-1
 48
1.0
  6
BYLAYER
 10
135.256814934354594
 20
242.5452205083806803
 30
0.0
 11
135.256814934354594
 21
239.5452205083807087
 31
0.0
  0
LINE
  5
12F
100
AcDbEntity
100
AcDbLine
  8
VISIBLE
 62
256
370
-1
 48
1.0
  6
BYLAYER
 10
290.2532507385146232
 20
92.9308081794206657
 30
0.0
 11
287.2532507385145095
 21
92.9308081794206657
 31
0.0
  0
LINE
  5
130
100
AcDbEntity
100
AcDbLine
  8
VISIBLE
 62
256
370
-1
 48
1.0
  6
BYLAYER
 10
371.0
 20
107.5
 30
0.0
 11
371.0
 21
100.0
 31
0.0
  0
LINE
  5
131
100
AcDbEntity
100
AcDbLine
  8
VISIBLE
 62
256
370
-1
 48
1.0
  6
BYLAYER
 10
332.1779531103545651
 20
108.074944156380667
 30
0.0
 11
332.1779531103545651
 21
100.574944156380667
 31
0.0
  0
LINE
  5
132
100
AcDbEntity
100
AcDbLine
  8
VISIBLE
 62
256
370
-1
 48
1.0
  6
BYLAYER
 10
35.256814934354594
 20
283.5452205083806803
 30
0.0
 11
35.256814934354594
 21
280.5452205083806803
 31
0.0
  0
LINE
  5
133
100
AcDbEntity
100
AcDbLine
  8
VISIBLE
 62
256
370
-1
 48
1.0
  6
BYLAYER
 10
35.256814934354594
 20
242.5452205083806803
 30
0.0
 11
35.256814934354594
 21
239.5452205083806803
 31
0.0
  0
LINE
  5
134
100
AcDbEntity
100
AcDbLine
  8
VISIBLE
 62
256
370
-1
 48
1.0
  6
BYLAYER
 10
82.2532507385146801
 20
170.4308081794206373
 30
0.0
 11
82.2532507385146658
 21
135.4308081794206373
 31
0.0
  0
LINE
  5
135
100
AcDbEntity
100
AcDbLine
  8
VISIBLE
 62
256
370
-1
 48
1.0
  6
BYLAYER
 10
270.2568149343545656
 20
283.5452205083806803
 30
0.0
 11
255.256814934354594
 21
283.5452205083806803
 31
0.0
  0
LINE
  5
136
100
AcDbEntity
100
AcDbLine
  8
VISIBLE
 62
256
370
-1
 48
1.0
  6
BYLAYER
 10
270.2568149343545656
 20
242.5452205083806518
 30
0.0
 11
255.256814934354594
 21
242.5452205083806518
 31
0.0
  0
LINE
  5
137
100
AcDbEntity
100
AcDbLine
  8
VISIBLE
 62
256
370
-1
 48
1.0
  6
BYLAYER
 10
249.2532507385146232
 20
170.4308081794206373
 30
0.0
 11
249.2532507385146232
 21
135.4308081794206373
 31
0.0
  0
LINE
  5
138
100
AcDbEntity
100
AcDbLine
  8
VISIBLE
 62
256
370
-1
 48
1.0
  6
BYLAYER
 10
235.256814934354594
 20
280.5452205083806803
 30
0.0
 11
155.256814934354594
 21
280.5452205083806803
 31
0.0
  0
LINE
  5
139
100
AcDbEntity
100
AcDbLine
  8
VISIBLE
 62
256
370
-1
 48
1.0
  6
BYLAYER
 10
235.256814934354594
 20
239.5452205083807087
 30
0.0
 11
155.256814934354594
 21
239.5452205083806803
 31
0.0
  0
LINE
  5
13A
100
AcDbEntity
100
AcDbLine
  8
VISIBLE
 62
256
370
-1
 48
1.0
  6
BYLAYER
 10
155.2532507385146516
 20
200.4308081794206373
 30
0.0
 11
175.2532507385145948
 21
200.4308081794206373
 31
0.0
  0
LINE
  5
13B
100
AcDbEntity
100
AcDbLine
  8
VISIBLE
 62
256
370
-1
 48
1.0
  6
BYLAYER
 10
20.256814934354594
 20
280.5452205083806803
 30
0.0
 11
3.256814934354594
 21
280.5452205083806803
 31
0.0
  0
LINE
  5
13C
100
AcDbEntity
100
AcDbLine
  8
VISIBLE
 62
256
370
-1
 48
1.0
  6
BYLAYER
 10
20.256814934354594
 20
239.5452205083806803
 30
0.0
 11
3.256814934354594
 21
239.5452205083806803
 31
0.0
  0
LINE
  5
13D
100
AcDbEntity
100
AcDbLine
  8
VISIBLE
 62
256
370
-1
 48
1.0
  6
BYLAYER
 10
135.2532507385146232
 20
200.4308081794206373
 30
0.0
 11
135.2532507385146232
 21
197.4308081794206942
 31
0.0
  0
LINE
  5
13E
100
AcDbEntity
100
AcDbLine
  8
VISIBLE
 62
256
370
-1
 48
1.0
  6
BYLAYER
 10
135.256814934354594
 20
280.5452205083806803
 30
0.0
 11
55.256814934354594
 21
280.5452205083806803
 31
0.0
  0
LINE
  5
13F
100
AcDbEntity
100
AcDbLine
  8
VISIBLE
 62
256
370
-1
 48
1.0
  6
BYLAYER
 10
135.256814934354594
 20
239.5452205083807087
 30
0.0
 11
55.256814934354594
 21
239.5452205083806803
 31
0.0
  0
LINE
  5
140
100
AcDbEntity
100
AcDbLine
  8
VISIBLE
 62
256
370
-1
 48
1.0
  6
BYLAYER
 10
0.2532507385146232
 20
175.4308081794206373
 30
0.0
 11
0.2532507385146232
 21
200.4308081794206373
 31
0.0
  0
LINE
  5
141
100
AcDbEntity
100
AcDbLine
  8
VISIBLE
 62
256
370
-1
 48
1.0
  6
BYLAYER
 10
270.2568149343545656
 20
280.5452205083806803
 30
0.0
 11
270.2568149343545656
 21
283.5452205083806803
 31
0.0
  0
LINE
  5
142
100
AcDbEntity
100
AcDbLine
  8
VISIBLE
 62
256
370
-1
 48
1.0
  6
BYLAYER
 10
270.2568149343545656
 20
239.5452205083806803
 30
0.0
 11
270.2568149343545656
 21
242.5452205083806803
 31
0.0
  0
LINE
  5
143
100
AcDbEntity
100
AcDbLine
  8
VISIBLE
 62
256
370
-1
 48
1.0
  6
BYLAYER
 10
290.2532507385146232
 20
25.4308081794206515
 30
0.0
 11
287.2532507385145095
 21
25.4308081794206515
 31
0.0
  0
LINE
  5
144
100
AcDbEntity
100
AcDbLine
  8
VISIBLE
 62
256
370
-1
 48
1.0
  6
BYLAYER
 10
20.256814934354594
 20
283.5452205083806803
 30
0.0
 11
35.256814934354594
 21
283.5452205083806803
 31
0.0
  0
LINE
  5
145
100
AcDbEntity
100
AcDbLine
  8
VISIBLE
 62
256
370
-1
 48
1.0
  6
BYLAYER
 10
20.256814934354594
 20
242.5452205083806803
 30
0.0
 11
35.256814934354594
 21
242.5452205083806803
 31
0.0
  0
LINE
  5
146
100
AcDbEntity
100
AcDbLine
  8
VISIBLE
 62
256
370
-1
 48
1.0
  6
BYLAYER
 10
155.2532507385146232
 20
200.4308081794206373
 30
0.0
 11
155.2532507385146232
 21
197.4308081794206942
 31
0.0
  0
LINE
  5
147
100
AcDbEntity
100
AcDbLine
  8
VISIBLE
 62
256
370
-1
 48
1.0
  6
BYLAYER
 10
20.256814934354594
 20
280.5452205083806803
 30
0.0
 11
20.256814934354594
 21
283.5452205083806803
 31
0.0
  0
LINE
  5
148
100
AcDbEntity
100
AcDbLine
  8
VISIBLE
 62
256
370
-1
 48
1.0
  6
BYLAYER
 10
20.256814934354594
 20
239.5452205083806803
 30
0.0
 11
20.256814934354594
 21
242.5452205083806803
 31
0.0
  0
LINE
  5
149
100
AcDbEntity
100
AcDbLine
  8
VISIBLE
 62
256
370
-1
 48
1.0
  6
BYLAYER
 10
290.2532507385147369
 20
125.4308081794206373
 30
0.0
 11
287.2532507385145095
 21
125.4308081794206373
 31
0.0
  0
LINE
  5
14A
100
AcDbEntity
100
AcDbLine
  8
VISIBLE
 62
256
370
-1
 48
1.0
  6
BYLAYER
 10
255.256814934354594
 20
280.5452205083806803
 30
0.0
 11
235.256814934354594
 21
280.5452205083806803
 31
0.0
  0
LINE
  5
14B
100
AcDbEntity
100
AcDbLine
  8
VISIBLE
 62
256
370
-1
 48
1.0
  6
BYLAYER
 10
255.256814934354594
 20
239.5452205083807087
 30
0.0
 11
235.256814934354594
 21
239.5452205083807087
 31
0.0
  0
LINE
  5
14C
100
AcDbEntity
100
AcDbLine
  8
VISIBLE
 62
256
370
-1
 48
1.0
  6
BYLAYER
 10
175.2532507385145948
 20
3.4308081794206231
 30
0.0
 11
235.2532507385145664
 21
3.4308081794206231
 31
0.0
  0
LINE
  5
14D
100
AcDbEntity
100
AcDbLine
  8
VISIBLE
 62
256
370
-1
 48
1.0
  6
BYLAYER
 10
55.256814934354594
 20
280.5452205083806803
 30
0.0
 11
35.256814934354594
 21
280.5452205083806803
 31
0.0
  0
LINE
  5
14E
100
AcDbEntity
100
AcDbLine
  8
VISIBLE
 62
256
370
-1
 48
1.0
  6
BYLAYER
 10
55.256814934354594
 20
239.5452205083806803
 30
0.0
 11
35.256814934354594
 21
239.5452205083806803
 31
0.0
  0
LINE
  5
14F
100
AcDbEntity
100
AcDbLine
  8
VISIBLE
 62
256
370
-1
 48
1.0
  6
BYLAYER
 10
115.253250738514609
 20
197.4308081794206942
 30
0.0
 11
115.253250738514609
 21
200.4308081794206373
 31
0.0
  0
LINE
  5
150
100
AcDbEntity
100
AcDbLine
  8
VISIBLE
 62
256
370
-1
 48
1.0
  6
BYLAYER
 10
41.256814934354594
 20
270.5452205083806803
 30
0.0
 11
41.256814934354594
 21
255.5452205083806803
 31
0.0
  0
LINE
  5
151
100
AcDbEntity
100
AcDbLine
  8
VISIBLE
 62
256
370
-1
 48
1.0
  6
BYLAYER
 10
41.256814934354594
 20
229.5452205083806518
 30
0.0
 11
41.256814934354594
 21
214.5452205083806803
 31
0.0
  0
LINE
  5
152
100
AcDbEntity
100
AcDbLine
  8
VISIBLE
 62
256
370
-1
 48
1.0
  6
BYLAYER
 10
123.2532507385147085
 20
170.4308081794206373
 30
0.0
 11
123.2532507385146943
 21
135.4308081794206373
 31
0.0
  0
LINE
  5
153
100
AcDbEntity
100
AcDbLine
  8
VISIBLE
 62
256
370
-1
 48
1.0
  6
BYLAYER
 10
3.256814934354594
 20
245.5452205083807087
 30
0.0
 11
55.256814934354594
 21
245.5452205083807087
 31
0.0
  0
LINE
  5
154
100
AcDbEntity
100
AcDbLine
  8
VISIBLE
 62
256
370
-1
 48
1.0
  6
BYLAYER
 10
3.256814934354594
 20
204.5452205083807087
 30
0.0
 11
55.256814934354594
 21
204.5452205083807087
 31
0.0
  0
LINE
  5
155
100
AcDbEntity
100
AcDbLine
  8
VISIBLE
 62
256
370
-1
 48
1.0
  6
BYLAYER
 10
249.2532507385146232
 20
65.4308081794206657
 30
0.0
 11
246.2532507385146232
 21
65.4308081794206657
 31
0.0
  0
LINE
  5
156
100
AcDbEntity
100
AcDbLine
  8
VISIBLE
 62
256
370
-1
 48
1.0
  6
BYLAYER
 10
115.256814934354594
 20
245.5452205083806803
 30
0.0
 11
175.256814934354594
 21
245.5452205083806803
 31
0.0
  0
LINE
  5
157
100
AcDbEntity
100
AcDbLine
  8
VISIBLE
 62
256
370
-1
 48
1.0
  6
BYLAYER
 10
115.256814934354594
 20
204.5452205083806803
 30
0.0
 11
175.256814934354594
 21
204.5452205083806803
 31
0.0
  0
LINE
  5
158
100
AcDbEntity
100
AcDbLine
  8
VISIBLE
 62
256
370
-1
 48
1.0
  6
BYLAYER
 10
164.2532507385145379
 20
170.4308081794206373
 30
0.0
 11
164.2532507385145379
 21
135.4308081794206373
 31
0.0
  0
LINE
  5
159
100
AcDbEntity
100
AcDbLine
  8
VISIBLE
 62
256
370
-1
 48
1.0
  6
BYLAYER
 10
235.256814934354594
 20
245.5452205083806803
 30
0.0
 11
287.2568149343545656
 21
245.5452205083806803
 31
0.0
  0
LINE
  5
15A
100
AcDbEntity
100
AcDbLine
  8
VISIBLE
 62
256
370
-1
 48
1.0
  6
BYLAYER
 10
235.256814934354594
 20
204.5452205083806803
 30
0.0
 11
287.2568149343545656
 21
204.5452205083806803
 31
0.0
  0
LINE
  5
15B
100
AcDbEntity
100
AcDbLine
  8
VISIBLE
 62
256
370
-1
 48
1.0
  6
BYLAYER
 10
0.2532507385146232
 20
0.4308081794206515
 30
0.0
 11
20.2532507385146232
 21
0.4308081794206515
 31
0.0
  0
LINE
  5
15C
100
AcDbEntity
100
AcDbLine
  8
VISIBLE
 62
256
370
-1
 48
1.0
  6
BYLAYER
 10
249.256814934354594
 20
255.5452205083806803
 30
0.0
 11
246.2568149343546793
 21
255.5452205083806803
 31
0.0
  0
LINE
  5
15D
100
AcDbEntity
100
AcDbLine
  8
VISIBLE
 62
256
370
-1
 48
1.0
  6
BYLAYER
 10
249.256814934354594
 20
214.5452205083806803
 30
0.0
 11
246.2568149343546793
 21
214.5452205083806803
 31
0.0
  0
LINE
  5
15E
100
AcDbEntity
100
AcDbLine
  8
VISIBLE
 62
256
370
-1
 48
1.0
  6
BYLAYER
 10
155.2532507385146516
 20
0.4308081794206515
 30
0.0
 11
175.2532507385145948
 21
0.4308081794206515
 31
0.0
  0
LINE
  5
15F
100
AcDbEntity
100
AcDbLine
  8
VISIBLE
 62
256
370
-1
 48
1.0
  6
BYLAYER
 10
246.2568149343546793
 20
270.5452205083806803
 30
0.0
 11
246.2568149343546793
 21
255.5452205083806803
 31
0.0
  0
LINE
  5
160
100
AcDbEntity
100
AcDbLine
  8
VISIBLE
 62
256
370
-1
 48
1.0
  6
BYLAYER
 10
246.2568149343546793
 20
229.5452205083806518
 30
0.0
 11
246.2568149343546793
 21
214.5452205083806803
 31
0.0
  0
LINE
  5
161
100
AcDbEntity
100
AcDbLine
  8
VISIBLE
 62
256
370
-1
 48
1.0
  6
BYLAYER
 10
0.2532507385146232
 20
200.4308081794206373
 30
0.0
 11
20.2532507385146232
 21
200.4308081794206373
 31
0.0
  0
LINE
  5
162
100
AcDbEntity
100
AcDbLine
  8
VISIBLE
 62
256
370
-1
 48
1.0
  6
BYLAYER
 10
208.2568149343546793
 20
255.5452205083806803
 30
0.0
 11
205.2568149343547645
 21
255.5452205083806803
 31
0.0
  0
LINE
  5
163
100
AcDbEntity
100
AcDbLine
  8
VISIBLE
 62
256
370
-1
 48
1.0
  6
BYLAYER
 10
208.2568149343546793
 20
214.5452205083806803
 30
0.0
 11
205.2568149343547645
 21
214.5452205083806803
 31
0.0
  0
LINE
  5
164
100
AcDbEntity
100
AcDbLine
  8
VISIBLE
 62
256
370
-1
 48
1.0
  6
BYLAYER
 10
0.2532507385146232
 20
0.4308081794206799
 30
0.0
 11
0.2532507385146232
 21
25.4308081794206515
 31
0.0
  0
LINE
  5
165
100
AcDbEntity
100
AcDbLine
  8
VISIBLE
 62
256
370
-1
 48
1.0
  6
BYLAYER
 10
175.256814934354594
 20
245.5452205083806803
 30
0.0
 11
175.256814934354594
 21
242.5452205083806803
 31
0.0
  0
LINE
  5
166
100
AcDbEntity
100
AcDbLine
  8
VISIBLE
 62
256
370
-1
 48
1.0
  6
BYLAYER
 10
175.256814934354594
 20
204.5452205083806803
 30
0.0
 11
175.256814934354594
 21
201.5452205083806803
 31
0.0
  0
LINE
  5
167
100
AcDbEntity
100
AcDbLine
  8
VISIBLE
 62
256
370
-1
 48
1.0
  6
BYLAYER
 10
20.2532507385146232
 20
3.4308081794206231
 30
0.0
 11
35.2532507385146232
 21
3.4308081794206231
 31
0.0
  0
LINE
  5
168
100
AcDbEntity
100
AcDbLine
  8
VISIBLE
 62
256
370
-1
 48
1.0
  6
BYLAYER
 10
205.2568149343547645
 20
270.5452205083806803
 30
0.0
 11
205.2568149343547645
 21
255.5452205083806803
 31
0.0
  0
LINE
  5
169
100
AcDbEntity
100
AcDbLine
  8
VISIBLE
 62
256
370
-1
 48
1.0
  6
BYLAYER
 10
205.2568149343547645
 20
229.5452205083806518
 30
0.0
 11
205.2568149343547645
 21
214.5452205083806803
 31
0.0
  0
LINE
  5
16A
100
AcDbEntity
100
AcDbLine
  8
VISIBLE
 62
256
370
-1
 48
1.0
  6
BYLAYER
 10
3.2532507385146232
 20
25.4308081794206515
 30
0.0
 11
3.2532507385146232
 21
75.4308081794206657
 31
0.0
  0
LINE
  5
16B
100
AcDbEntity
100
AcDbLine
  8
VISIBLE
 62
256
370
-1
 48
1.0
  6
BYLAYER
 10
287.2568149343545656
 20
280.5452205083806803
 30
0.0
 11
270.2568149343545656
 21
280.5452205083806803
 31
0.0
  0
LINE
  5
16C
100
AcDbEntity
100
AcDbLine
  8
VISIBLE
 62
256
370
-1
 48
1.0
  6
BYLAYER
 10
287.2568149343545656
 20
239.5452205083807087
 30
0.0
 11
270.2568149343545656
 21
239.5452205083807087
 31
0.0
  0
LINE
  5
16D
100
AcDbEntity
100
AcDbLine
  8
VISIBLE
 62
256
370
-1
 48
1.0
  6
BYLAYER
 10
287.2532507385145095
 20
25.4308081794206515
 30
0.0
 11
287.2532507385145095
 21
75.4308081794206657
 31
0.0
  0
LINE
  5
16E
100
AcDbEntity
100
AcDbLine
  8
VISIBLE
 62
256
370
-1
 48
1.0
  6
BYLAYER
 10
208.2568149343546793
 20
270.5452205083806803
 30
0.0
 11
208.2568149343546793
 21
255.5452205083806803
 31
0.0
  0
LINE
  5
16F
100
AcDbEntity
100
AcDbLine
  8
VISIBLE
 62
256
370
-1
 48
1.0
  6
BYLAYER
 10
208.2568149343546793
 20
229.5452205083806518
 30
0.0
 11
208.2568149343546793
 21
214.5452205083806803
 31
0.0
  0
LINE
  5
170
100
AcDbEntity
100
AcDbLine
  8
VISIBLE
 62
256
370
-1
 48
1.0
  6
BYLAYER
 10
0.2532507385146232
 20
25.4308081794206515
 30
0.0
 11
3.2532507385147369
 21
25.4308081794206515
 31
0.0
  0
LINE
  5
171
100
AcDbEntity
100
AcDbLine
  8
VISIBLE
 62
256
370
-1
 48
1.0
  6
BYLAYER
 10
3.256814934354594
 20
270.5452205083806803
 30
0.0
 11
0.256814934354594
 21
270.5452205083806803
 31
0.0
  0
LINE
  5
172
100
AcDbEntity
100
AcDbLine
  8
VISIBLE
 62
256
370
-1
 48
1.0
  6
BYLAYER
 10
3.256814934354594
 20
229.5452205083807087
 30
0.0
 11
0.256814934354594
 21
229.5452205083807087
 31
0.0
  0
LINE
  5
173
100
AcDbEntity
100
AcDbLine
  8
VISIBLE
 62
256
370
-1
 48
1.0
  6
BYLAYER
 10
135.2532507385145948
 20
3.4308081794206231
 30
0.0
 11
155.2532507385146516
 21
3.4308081794206231
 31
0.0
  0
LINE
  5
174
100
AcDbEntity
100
AcDbLine
  8
VISIBLE
 62
256
370
-1
 48
1.0
  6
BYLAYER
 10
167.2568149343547645
 20
270.5452205083806803
 30
0.0
 11
164.2568149343548498
 21
270.5452205083806803
 31
0.0
  0
LINE
  5
175
100
AcDbEntity
100
AcDbLine
  8
VISIBLE
 62
256
370
-1
 48
1.0
  6
BYLAYER
 10
167.2568149343547645
 20
229.5452205083806518
 30
0.0
 11
164.2568149343548498
 21
229.5452205083806518
 31
0.0
  0
LINE
  5
176
100
AcDbEntity
100
AcDbLine
  8
VISIBLE
 62
256
370
-1
 48
1.0
  6
BYLAYER
 10
0.2532507385145095
 20
75.4308081794206657
 30
0.0
 11
3.2532507385147369
 21
75.4308081794206657
 31
0.0
  0
LINE
  5
177
100
AcDbEntity
100
AcDbLine
  8
VISIBLE
 62
256
370
-1
 48
1.0
  6
BYLAYER
 10
115.256814934354594
 20
245.5452205083806803
 30
0.0
 11
115.256814934354594
 21
242.5452205083806803
 31
0.0
  0
LINE
  5
178
100
AcDbEntity
100
AcDbLine
  8
VISIBLE
 62
256
370
-1
 48
1.0
  6
BYLAYER
 10
115.256814934354594
 20
204.5452205083806803
 30
0.0
 11
115.256814934354594
 21
201.5452205083806803
 31
0.0
  0
LINE
  5
179
100
AcDbEntity
100
AcDbLine
  8
VISIBLE
 62
256
370
-1
 48
1.0
  6
BYLAYER
 10
3.2532507385146232
 20
25.4308081794206515
 30
0.0
 11
3.2532507385146232
 21
75.4308081794206657
 31
0.0
  0
LINE
  5
17A
100
AcDbEntity
100
AcDbLine
  8
VISIBLE
 62
256
370
-1
 48
1.0
  6
BYLAYER
 10
164.2568149343548498
 20
270.5452205083806803
 30
0.0
 11
164.2568149343548498
 21
255.5452205083806803
 31
0.0
  0
LINE
  5
17B
100
AcDbEntity
100
AcDbLine
  8
VISIBLE
 62
256
370
-1
 48
1.0
  6
BYLAYER
 10
164.2568149343548498
 20
229.5452205083806518
 30
0.0
 11
164.2568149343548498
 21
214.5452205083806803
 31
0.0
  0
LINE
  5
17C
100
AcDbEntity
100
AcDbLine
  8
VISIBLE
 62
256
370
-1
 48
1.0
  6
BYLAYER
 10
0.2532507385145095
 20
125.4308081794206373
 30
0.0
 11
3.2532507385147369
 21
125.4308081794206373
 31
0.0
  0
LINE
  5
17D
100
AcDbEntity
100
AcDbLine
  8
VISIBLE
 62
256
370
-1
 48
1.0
  6
BYLAYER
 10
123.2568149343544235
 20
255.5452205083806803
 30
0.0
 11
126.2568149343543382
 21
255.5452205083806803
 31
0.0
  0
LINE
  5
17E
100
AcDbEntity
100
AcDbLine
  8
VISIBLE
 62
256
370
-1
 48
1.0
  6
BYLAYER
 10
123.2568149343544235
 20
214.5452205083806803
 30
0.0
 11
126.2568149343543382
 21
214.5452205083806803
 31
0.0
  0
LINE
  5
17F
100
AcDbEntity
100
AcDbLine
  8
VISIBLE
 62
256
370
-1
 48
1.0
  6
BYLAYER
 10
290.2532507385147369
 20
75.4308081794206657
 30
0.0
 11
287.2532507385145095
 21
75.4308081794206657
 31
0.0
  0
LINE
  5
180
100
AcDbEntity
100
AcDbLine
  8
VISIBLE
 62
256
370
-1
 48
1.0
  6
BYLAYER
 10
82.2568149343545088
 20
255.5452205083806803
 30
0.0
 11
85.2568149343544235
 21
255.5452205083806803
 31
0.0
  0
LINE
  5
181
100
AcDbEntity
100
AcDbLine
  8
VISIBLE
 62
256
370
-1
 48
1.0
  6
BYLAYER
 10
82.2568149343545088
 20
214.5452205083806803
 30
0.0
 11
85.2568149343544235
 21
214.5452205083806803
 31
0.0
  0
LINE
  5
182
100
AcDbEntity
100
AcDbLine
  8
VISIBLE
 62
256
370
-1
 48
1.0
  6
BYLAYER
 10
290.2532507385146232
 20
175.4308081794206373
 30
0.0
 11
287.2532507385145095
 21
175.4308081794206373
 31
0.0
  0
LINE
  5
183
100
AcDbEntity
100
AcDbLine
  8
VISIBLE
 62
256
370
-1
 48
1.0
  6
BYLAYER
 10
44.2568149343544945
 20
270.5452205083806803
 30
0.0
 11
44.2568149343544945
 21
255.5452205083806803
 31
0.0
  0
LINE
  5
184
100
AcDbEntity
100
AcDbLine
  8
VISIBLE
 62
256
370
-1
 48
1.0
  6
BYLAYER
 10
44.2568149343544945
 20
229.5452205083806518
 30
0.0
 11
44.2568149343544945
 21
214.5452205083806803
 31
0.0
  0
LINE
  5
185
100
AcDbEntity
100
AcDbLine
  8
VISIBLE
 62
256
370
-1
 48
1.0
  6
BYLAYER
 10
115.253250738514609
 20
3.4308081794206231
 30
0.0
 11
115.253250738514609
 21
0.4308081794206515
 31
0.0
  0
LINE
  5
186
100
AcDbEntity
100
AcDbLine
  8
VISIBLE
 62
256
370
-1
 48
1.0
  6
BYLAYER
 10
82.2568149343545088
 20
270.5452205083806803
 30
0.0
 11
82.2568149343545088
 21
255.5452205083806803
 31
0.0
  0
LINE
  5
187
100
AcDbEntity
100
AcDbLine
  8
VISIBLE
 62
256
370
-1
 48
1.0
  6
BYLAYER
 10
82.2568149343545088
 20
229.5452205083806518
 30
0.0
 11
82.2568149343545088
 21
214.5452205083806803
 31
0.0
  0
LINE
  5
188
100
AcDbEntity
100
AcDbLine
  8
VISIBLE
 62
256
370
-1
 48
1.0
  6
BYLAYER
 10
3.2532507385146232
 20
125.4308081794206373
 30
0.0
 11
3.2532507385146232
 21
175.4308081794206373
 31
0.0
  0
LINE
  5
189
100
AcDbEntity
100
AcDbLine
  8
VISIBLE
 62
256
370
-1
 48
1.0
  6
BYLAYER
 10
85.2568149343544235
 20
270.5452205083806803
 30
0.0
 11
85.2568149343544235
 21
255.5452205083806803
 31
0.0
  0
LINE
  5
18A
100
AcDbEntity
100
AcDbLine
  8
VISIBLE
 62
256
370
-1
 48
1.0
  6
BYLAYER
 10
85.2568149343544235
 20
229.5452205083806518
 30
0.0
 11
85.2568149343544235
 21
214.5452205083806803
 31
0.0
  0
LINE
  5
18B
100
AcDbEntity
100
AcDbLine
  8
VISIBLE
 62
256
370
-1
 48
1.0
  6
BYLAYER
 10
55.2532507385146232
 20
3.4308081794206231
 30
0.0
 11
55.2532507385146232
 21
0.4308081794206515
 31
0.0
  0
LINE
  5
18C
100
AcDbEntity
100
AcDbLine
  8
VISIBLE
 62
256
370
-1
 48
1.0
  6
BYLAYER
 10
123.2568149343544235
 20
270.5452205083806803
 30
0.0
 11
123.2568149343544235
 21
255.5452205083806803
 31
0.0
  0
LINE
  5
18D
100
AcDbEntity
100
AcDbLine
  8
VISIBLE
 62
256
370
-1
 48
1.0
  6
BYLAYER
 10
123.2568149343544235
 20
229.5452205083806518
 30
0.0
 11
123.2568149343544235
 21
214.5452205083806803
 31
0.0
  0
LINE
  5
18E
100
AcDbEntity
100
AcDbLine
  8
VISIBLE
 62
256
370
-1
 48
1.0
  6
BYLAYER
 10
175.2532507385146232
 20
3.4308081794206231
 30
0.0
 11
175.2532507385146232
 21
0.4308081794206515
 31
0.0
  0
LINE
  5
18F
100
AcDbEntity
100
AcDbLine
  8
VISIBLE
 62
256
370
-1
 48
1.0
  6
BYLAYER
 10
126.2568149343543382
 20
270.5452205083806803
 30
0.0
 11
126.2568149343543382
 21
255.5452205083806803
 31
0.0
  0
LINE
  5
190
100
AcDbEntity
100
AcDbLine
  8
VISIBLE
 62
256
370
-1
 48
1.0
  6
BYLAYER
 10
126.2568149343543382
 20
229.5452205083806518
 30
0.0
 11
126.2568149343543382
 21
214.5452205083806803
 31
0.0
  0
LINE
  5
191
100
AcDbEntity
100
AcDbLine
  8
VISIBLE
 62
256
370
-1
 48
1.0
  6
BYLAYER
 10
55.2532507385146232
 20
197.4308081794206942
 30
0.0
 11
55.2532507385146232
 21
200.4308081794206373
 31
0.0
  0
LINE
  5
192
100
AcDbEntity
100
AcDbLine
  8
VISIBLE
 62
256
370
-1
 48
1.0
  6
BYLAYER
 10
41.256814934354594
 20
255.5452205083806803
 30
0.0
 11
44.2568149343544945
 21
255.5452205083806803
 31
0.0
  0
LINE
  5
193
100
AcDbEntity
100
AcDbLine
  8
VISIBLE
 62
256
370
-1
 48
1.0
  6
BYLAYER
 10
41.256814934354594
 20
214.5452205083806803
 30
0.0
 11
44.2568149343544945
 21
214.5452205083806803
 31
0.0
  0
LINE
  5
194
100
AcDbEntity
100
AcDbLine
  8
VISIBLE
 62
256
370
-1
 48
1.0
  6
BYLAYER
 10
208.2532507385145948
 20
135.4308081794206373
 30
0.0
 11
205.2532507385145664
 21
135.4308081794206373
 31
0.0
  0
LINE
  5
195
100
AcDbEntity
100
AcDbLine
  8
VISIBLE
 62
256
370
-1
 48
1.0
  6
BYLAYER
 10
123.2568149343544235
 20
270.5452205083806803
 30
0.0
 11
126.2568149343543382
 21
270.5452205083806803
 31
0.0
  0
LINE
  5
196
100
AcDbEntity
100
AcDbLine
  8
VISIBLE
 62
256
370
-1
 48
1.0
  6
BYLAYER
 10
123.2568149343544235
 20
229.5452205083806518
 30
0.0
 11
126.2568149343543382
 21
229.5452205083806518
 31
0.0
  0
LINE
  5
197
100
AcDbEntity
100
AcDbLine
  8
VISIBLE
 62
256
370
-1
 48
1.0
  6
BYLAYER
 10
175.2532507385146232
 20
197.4308081794206942
 30
0.0
 11
175.2532507385146232
 21
200.4308081794206373
 31
0.0
  0
LINE
  5
198
100
AcDbEntity
100
AcDbLine
  8
VISIBLE
 62
256
370
-1
 48
1.0
  6
BYLAYER
 10
235.2532507385146232
 20
197.4308081794206942
 30
0.0
 11
235.2532507385146232
 21
200.4308081794206373
 31
0.0
  0
LINE
  5
199
100
AcDbEntity
100
AcDbLine
  8
VISIBLE
 62
256
370
-1
 48
1.0
  6
BYLAYER
 10
235.2532507385145664
 20
0.4308081794206799
 30
0.0
 11
255.2532507385146232
 21
0.4308081794206799
 31
0.0
  0
LINE
  5
19A
100
AcDbEntity
100
AcDbLine
  8
VISIBLE
 62
256
370
-1
 48
1.0
  6
BYLAYER
 10
0.2532507385146232
 20
75.4308081794206657
 30
0.0
 11
0.2532507385146232
 21
92.9308081794206799
 31
0.0
  0
LINE
  5
19B
100
AcDbEntity
100
AcDbLine
  8
VISIBLE
 62
256
370
-1
 48
1.0
  6
BYLAYER
 10
235.2532507385145664
 20
200.4308081794206373
 30
0.0
 11
255.2532507385146232
 21
200.4308081794206373
 31
0.0
  0
LINE
  5
19C
100
AcDbEntity
100
AcDbLine
  8
VISIBLE
 62
256
370
-1
 48
1.0
  6
BYLAYER
 10
290.2532507385146232
 20
175.4308081794206373
 30
0.0
 11
290.2532507385146232
 21
200.4308081794206373
 31
0.0
  0
LINE
  5
19D
100
AcDbEntity
100
AcDbLine
  8
VISIBLE
 62
256
370
-1
 48
1.0
  6
BYLAYER
 10
41.2532507385146232
 20
65.4308081794206657
 30
0.0
 11
44.2532507385146232
 21
65.4308081794206657
 31
0.0
  0
LINE
  5
19E
100
AcDbEntity
100
AcDbLine
  8
VISIBLE
 62
256
370
-1
 48
1.0
  6
BYLAYER
 10
290.2532507385146232
 20
75.4308081794206657
 30
0.0
 11
290.2532507385146232
 21
92.9308081794206799
 31
0.0
  0
LINE
  5
19F
100
AcDbEntity
100
AcDbLine
  8
VISIBLE
 62
256
370
-1
 48
1.0
  6
BYLAYER
 10
249.2532507385146232
 20
170.4308081794206373
 30
0.0
 11
246.2532507385146232
 21
170.4308081794206373
 31
0.0
  0
LINE
  5
1A0
100
AcDbEntity
100
AcDbLine
  8
VISIBLE
 62
256
370
-1
 48
1.0
  6
BYLAYER
 10
135.2532507385146232
 20
0.4308081794206515
 30
0.0
 11
135.2532507385146232
 21
3.4308081794206231
 31
0.0
  0
LINE
  5
1A1
100
AcDbEntity
100
AcDbLine
  8
VISIBLE
 62
256
370
-1
 48
1.0
  6
BYLAYER
 10
0.2532507385146232
 20
92.9308081794206657
 30
0.0
 11
3.2532507385147369
 21
92.9308081794206657
 31
0.0
  0
LINE
  5
1A2
100
AcDbEntity
100
AcDbLine
  8
VISIBLE
 62
256
370
-1
 48
1.0
  6
BYLAYER
 10
20.2532507385146232
 20
0.4308081794206799
 30
0.0
 11
20.2532507385146232
 21
3.4308081794206231
 31
0.0
  0
LINE
  5
1A3
100
AcDbEntity
100
AcDbLine
  8
VISIBLE
 62
256
370
-1
 48
1.0
  6
BYLAYER
 10
255.2532507385146232
 20
0.4308081794206515
 30
0.0
 11
255.2532507385146232
 21
3.4308081794206231
 31
0.0
  0
LINE
  5
1A4
100
AcDbEntity
100
AcDbLine
  8
VISIBLE
 62
256
370
-1
 48
1.0
  6
BYLAYER
 10
255.2532507385146232
 20
200.4308081794206373
 30
0.0
 11
255.2532507385146232
 21
197.4308081794206942
 31
0.0
  0
LINE
  5
1A5
100
AcDbEntity
100
AcDbLine
  8
VISIBLE
 62
256
370
-1
 48
1.0
  6
BYLAYER
 10
270.2532507385146232
 20
0.4308081794206799
 30
0.0
 11
270.2532507385146232
 21
3.4308081794206231
 31
0.0
  0
LINE
  5
1A6
100
AcDbEntity
100
AcDbLine
  8
VISIBLE
 62
256
370
-1
 48
1.0
  6
BYLAYER
 10
208.2532507385145948
 20
65.4308081794206657
 30
0.0
 11
205.2532507385145664
 21
65.4308081794206657
 31
0.0
  0
LINE
  5
1A7
100
AcDbEntity
100
AcDbLine
  8
VISIBLE
 62
256
370
-1
 48
1.0
  6
BYLAYER
 10
0.2532507385146232
 20
107.9308081794206373
 30
0.0
 11
3.2532507385147369
 21
107.9308081794206373
 31
0.0
  0
LINE
  5
1A8
100
AcDbEntity
100
AcDbLine
  8
VISIBLE
 62
256
370
-1
 48
1.0
  6
BYLAYER
 10
20.2532507385146232
 20
200.4308081794206373
 30
0.0
 11
20.2532507385146232
 21
197.4308081794206942
 31
0.0
  0
LINE
  5
1A9
100
AcDbEntity
100
AcDbLine
  8
VISIBLE
 62
256
370
-1
 48
1.0
  6
BYLAYER
 10
35.2532507385146232
 20
200.4308081794206373
 30
0.0
 11
35.2532507385146232
 21
197.4308081794206942
 31
0.0
  0
LINE
  5
1AA
100
AcDbEntity
100
AcDbLine
  8
VISIBLE
 62
256
370
-1
 48
1.0
  6
BYLAYER
 10
290.2532507385146232
 20
107.9308081794206373
 30
0.0
 11
287.2532507385145095
 21
107.9308081794206373
 31
0.0
  0
LINE
  5
1AB
100
AcDbEntity
100
AcDbLine
  8
VISIBLE
 62
256
370
-1
 48
1.0
  6
BYLAYER
 10
270.2532507385146232
 20
0.4308081794206799
 30
0.0
 11
290.2532507385146232
 21
0.4308081794206799
 31
0.0
  0
LINE
  5
1AC
100
AcDbEntity
100
AcDbLine
  8
VISIBLE
 62
256
370
-1
 48
1.0
  6
BYLAYER
 10
270.2532507385146232
 20
200.4308081794206373
 30
0.0
 11
290.2532507385146232
 21
200.4308081794206373
 31
0.0
  0
LINE
  5
1AD
100
AcDbEntity
100
AcDbLine
  8
VISIBLE
 62
256
370
-1
 48
1.0
  6
BYLAYER
 10
123.2532507385146801
 20
30.4308081794206799
 30
0.0
 11
126.2532507385147085
 21
30.4308081794206799
 31
0.0
  0
LINE
  5
1AE
100
AcDbEntity
100
AcDbLine
  8
VISIBLE
 62
256
370
-1
 48
1.0
  6
BYLAYER
 10
167.2532507385145664
 20
135.4308081794206373
 30
0.0
 11
164.2532507385145379
 21
135.4308081794206373
 31
0.0
  0
LINE
  5
1AF
100
AcDbEntity
100
AcDbLine
  8
VISIBLE
 62
256
370
-1
 48
1.0
  6
BYLAYER
 10
35.2532507385146232
 20
200.4308081794206373
 30
0.0
 11
55.2532507385146658
 21
200.4308081794206373
 31
0.0
  0
LINE
  5
1B0
100
AcDbEntity
100
AcDbLine
  8
VISIBLE
 62
256
370
-1
 48
1.0
  6
BYLAYER
 10
0.2532507385146232
 20
107.9308081794206231
 30
0.0
 11
0.2532507385146232
 21
125.4308081794206373
 31
0.0
  0
LINE
  5
1B1
100
AcDbEntity
100
AcDbLine
  8
VISIBLE
 62
256
370
-1
 48
1.0
  6
BYLAYER
 10
287.2532507385145095
 20
92.9308081794206799
 30
0.0
 11
287.2532507385145095
 21
107.9308081794206231
 31
0.0
  0
LINE
  5
1B2
100
AcDbEntity
100
AcDbLine
  8
VISIBLE
 62
256
370
-1
 48
1.0
  6
BYLAYER
 10
85.2532507385146943
 20
170.4308081794206373
 30
0.0
 11
85.2532507385146801
 21
135.4308081794206373
 31
0.0
  0
LINE
  5
1B3
100
AcDbEntity
100
AcDbLine
  8
VISIBLE
 62
256
370
-1
 48
1.0
  6
BYLAYER
 10
287.2532507385145095
 20
125.4308081794206373
 30
0.0
 11
287.2532507385145095
 21
175.4308081794206373
 31
0.0
  0
LINE
  5
1B4
100
AcDbEntity
100
AcDbLine
  8
VISIBLE
 62
256
370
-1
 48
1.0
  6
BYLAYER
 10
255.2532507385146232
 20
197.4308081794206942
 30
0.0
 11
270.2532507385146232
 21
197.4308081794206942
 31
0.0
  0
LINE
  5
1B5
100
AcDbEntity
100
AcDbLine
  8
VISIBLE
 62
256
370
-1
 48
1.0
  6
BYLAYER
 10
126.2532507385147085
 20
30.4308081794206657
 30
0.0
 11
126.2532507385147085
 21
65.4308081794206657
 31
0.0
  0
LINE
  5
1B6
100
AcDbEntity
100
AcDbLine
  8
VISIBLE
 62
256
370
-1
 48
1.0
  6
BYLAYER
 10
175.2532507385145948
 20
197.4308081794206942
 30
0.0
 11
235.2532507385145664
 21
197.4308081794206942
 31
0.0
  0
LINE
  5
1B7
100
AcDbEntity
100
AcDbLine
  8
VISIBLE
 62
256
370
-1
 48
1.0
  6
BYLAYER
 10
135.2532507385145948
 20
197.4308081794206942
 30
0.0
 11
155.2532507385146516
 21
197.4308081794206942
 31
0.0
  0
LINE
  5
1B8
100
AcDbEntity
100
AcDbLine
  8
VISIBLE
 62
256
370
-1
 48
1.0
  6
BYLAYER
 10
55.2532507385146658
 20
197.4308081794206942
 30
0.0
 11
115.2532507385146516
 21
197.4308081794206942
 31
0.0
  0
LINE
  5
1B9
100
AcDbEntity
100
AcDbLine
  8
VISIBLE
 62
256
370
-1
 48
1.0
  6
BYLAYER
 10
41.2532507385146232
 20
30.4308081794206657
 30
0.0
 11
44.2532507385146232
 21
30.4308081794206657
 31
0.0
  0
LINE
  5
1BA
100
AcDbEntity
100
AcDbLine
  8
VISIBLE
 62
256
370
-1
 48
1.0
  6
BYLAYER
 10
41.2532507385146232
 20
170.4308081794206373
 30
0.0
 11
44.2532507385146232
 21
170.4308081794206373
 31
0.0
  0
LINE
  5
1BB
100
AcDbEntity
100
AcDbLine
  8
VISIBLE
 62
256
370
-1
 48
1.0
  6
BYLAYER
 10
41.2532507385146232
 20
30.4308081794206657
 30
0.0
 11
41.2532507385146232
 21
65.4308081794206657
 31
0.0
  0
LINE
  5
1BC
100
AcDbEntity
100
AcDbLine
  8
VISIBLE
 62
256
370
-1
 48
1.0
  6
BYLAYER
 10
249.2532507385146232
 20
30.4308081794206657
 30
0.0
 11
246.2532507385146232
 21
30.4308081794206657
 31
0.0
  0
LINE
  5
1BD
100
AcDbEntity
100
AcDbLine
  8
VISIBLE
 62
256
370
-1
 48
1.0
  6
BYLAYER
 10
41.2532507385146232
 20
135.4308081794206373
 30
0.0
 11
44.2532507385146232
 21
135.4308081794206373
 31
0.0
  0
LINE
  5
1BE
100
AcDbEntity
100
AcDbLine
  8
VISIBLE
 62
256
370
-1
 48
1.0
  6
BYLAYER
 10
44.2532507385147227
 20
170.4308081794206373
 30
0.0
 11
44.2532507385147227
 21
135.4308081794206373
 31
0.0
  0
LINE
  5
1BF
100
AcDbEntity
100
AcDbLine
  8
VISIBLE
 62
256
370
-1
 48
1.0
  6
BYLAYER
 10
249.2532507385146232
 20
30.4308081794206657
 30
0.0
 11
249.2532507385146232
 21
65.4308081794206657
 31
0.0
  0
LINE
  5
1C0
100
AcDbEntity
100
AcDbLine
  8
VISIBLE
 62
256
370
-1
 48
1.0
  6
BYLAYER
 10
246.2532507385145095
 20
170.4308081794206373
 30
0.0
 11
246.2532507385145095
 21
135.4308081794206373
 31
0.0
  0
LINE
  5
1C1
100
AcDbEntity
100
AcDbLine
  8
VISIBLE
 62
256
370
-1
 48
1.0
  6
BYLAYER
 10
82.2532507385146516
 20
30.4308081794206657
 30
0.0
 11
82.2532507385146516
 21
65.4308081794206657
 31
0.0
  0
LINE
  5
1C2
100
AcDbEntity
100
AcDbLine
  8
VISIBLE
 62
256
370
-1
 48
1.0
  6
BYLAYER
 10
82.2532507385146516
 20
65.4308081794206657
 30
0.0
 11
85.2532507385146801
 21
65.4308081794206657
 31
0.0
  0
LINE
  5
1C3
100
AcDbEntity
100
AcDbLine
  8
VISIBLE
 62
256
370
-1
 48
1.0
  6
BYLAYER
 10
82.2532507385146516
 20
30.4308081794206657
 30
0.0
 11
85.2532507385146801
 21
30.4308081794206657
 31
0.0
  0
LINE
  5
1C4
100
AcDbEntity
100
AcDbLine
  8
VISIBLE
 62
256
370
-1
 48
1.0
  6
BYLAYER
 10
205.2532507385145664
 20
30.4308081794206657
 30
0.0
 11
205.2532507385145664
 21
65.4308081794206657
 31
0.0
  0
LINE
  5
1C5
100
AcDbEntity
100
AcDbLine
  8
VISIBLE
 62
256
370
-1
 48
1.0
  6
BYLAYER
 10
208.2532507385145948
 20
30.4308081794206657
 30
0.0
 11
208.2532507385145948
 21
65.4308081794206657
 31
0.0
  0
LINE
  5
1C6
100
AcDbEntity
100
AcDbLine
  8
VISIBLE
 62
256
370
-1
 48
1.0
  6
BYLAYER
 10
82.2532507385146516
 20
170.4308081794206373
 30
0.0
 11
85.2532507385146801
 21
170.4308081794206373
 31
0.0
  0
LINE
  5
1C7
100
AcDbEntity
100
AcDbLine
  8
VISIBLE
 62
256
370
-1
 48
1.0
  6
BYLAYER
 10
208.2532507385145948
 20
170.4308081794206373
 30
0.0
 11
205.2532507385145664
 21
170.4308081794206373
 31
0.0
  0
LINE
  5
1C8
100
AcDbEntity
100
AcDbLine
  8
VISIBLE
 62
256
370
-1
 48
1.0
  6
BYLAYER
 10
205.2532507385145664
 20
170.4308081794206373
 30
0.0
 11
205.2532507385145664
 21
135.4308081794206373
 31
0.0
  0
LINE
  5
1C9
100
AcDbEntity
100
AcDbLine
  8
VISIBLE
 62
256
370
-1
 48
1.0
  6
BYLAYER
 10
208.2532507385145948
 20
170.4308081794206373
 30
0.0
 11
208.2532507385145948
 21
135.4308081794206373
 31
0.0
  0
LINE
  5
1CA
100
AcDbEntity
100
AcDbLine
  8
VISIBLE
 62
256
370
-1
 48
1.0
  6
BYLAYER
 10
167.2532507385145664
 20
30.4308081794206799
 30
0.0
 11
164.2532507385145379
 21
30.4308081794206799
 31
0.0
  0
LINE
  5
1CB
100
AcDbEntity
100
AcDbLine
  8
VISIBLE
 62
256
370
-1
 48
1.0
  6
BYLAYER
 10
123.2532507385146801
 20
30.4308081794206657
 30
0.0
 11
123.2532507385146801
 21
65.4308081794206657
 31
0.0
  0
LINE
  5
1CC
100
AcDbEntity
100
AcDbLine
  8
VISIBLE
 62
256
370
-1
 48
1.0
  6
BYLAYER
 10
167.2532507385145664
 20
30.4308081794206657
 30
0.0
 11
167.2532507385145664
 21
65.4308081794206657
 31
0.0
  0
LINE
  5
1CD
100
AcDbEntity
100
AcDbLine
  8
VISIBLE
 62
256
370
-1
 48
1.0
  6
BYLAYER
 10
123.2532507385146801
 20
135.4308081794206373
 30
0.0
 11
126.2532507385147085
 21
135.4308081794206373
 31
0.0
  0
LINE
  5
1CE
100
AcDbEntity
100
AcDbLine
  8
VISIBLE
 62
256
370
-1
 48
1.0
  6
BYLAYER
 10
123.2532507385146801
 20
170.4308081794206373
 30
0.0
 11
126.2532507385147085
 21
170.4308081794206373
 31
0.0
  0
LINE
  5
1CF
100
AcDbEntity
100
AcDbLine
  8
VISIBLE
 62
256
370
-1
 48
1.0
  6
BYLAYER
 10
290.2532507385146232
 20
0.4308081794206799
 30
0.0
 11
290.2532507385146232
 21
25.4308081794206515
 31
0.0
  0
LINE
  5
1D0
100
AcDbEntity
100
AcDbLine
  8
VISIBLE
 62
256
370
-1
 48
1.0
  6
BYLAYER
 10
167.2532507385145664
 20
170.4308081794206373
 30
0.0
 11
167.2532507385145664
 21
135.4308081794206373
 31
0.0
  0
LINE
  5
1D1
100
AcDbEntity
100
AcDbLine
  8
VISIBLE
 62
256
370
-1
 48
1.0
  6
BYLAYER
 10
126.2532507385147227
 20
170.4308081794206373
 30
0.0
 11
126.2532507385147227
 21
135.4308081794206373
 31
0.0
  0
LINE
  5
1D2
100
AcDbEntity
100
AcDbLine
  8
VISIBLE
 62
256
370
-1
 48
1.0
  6
BYLAYER
 10
167.2532507385145664
 20
170.4308081794206373
 30
0.0
 11
164.2532507385145379
 21
170.4308081794206373
 31
0.0
  0
LINE
  5
1D3
100
AcDbEntity
100
AcDbLine
  8
VISIBLE
 62
256
370
-1
 48
1.0
  6
BYLAYER
 10
255.2532507385146232
 20
3.4308081794206231
 30
0.0
 11
270.2532507385146232
 21
3.4308081794206231
 31
0.0
  0
LINE
  5
1D4
100
AcDbEntity
100
AcDbLine
  8
VISIBLE
 62
256
370
-1
 48
1.0
  6
BYLAYER
 10
287.2568149343545656
 20
229.5452205083806518
 30
0.0
 11
290.2568149343545656
 21
229.5452205083806518
 31
0.0
  0
LINE
  5
1D5
100
AcDbEntity
100
AcDbLine
  8
VISIBLE
 62
256
370
-1
 48
1.0
  6
BYLAYER
 10
287.2568149343545656
 20
270.5452205083806803
 30
0.0
 11
290.2568149343545656
 21
270.5452205083806803
 31
0.0
  0
LINE
  5
1D6
100
AcDbEntity
100
AcDbLine
  8
VISIBLE
 62
256
370
-1
 48
1.0
  6
BYLAYER
 10
294.1779531103545651
 20
75.574944156380667
 30
0.0
 11
291.1779531103545651
 21
75.574944156380667
 31
0.0
  0
LINE
  5
1D7
100
AcDbEntity
100
AcDbLine
  8
VISIBLE
 62
256
370
-1
 48
1.0
  6
BYLAYER
 10
333.0
 20
75.0
 30
0.0
 11
330.0
 21
75.0
 31
0.0
  0
LINE
  5
1D8
100
AcDbEntity
100
AcDbLine
  8
VISIBLE
 62
256
370
-1
 48
1.0
  6
BYLAYER
 10
371.3944924852880831
 20
134.8818058438473031
 30
0.0
 11
368.3944924852880831
 21
134.8818058438473031
 31
0.0
  0
LINE
  5
1D9
100
AcDbEntity
100
AcDbLine
  8
VISIBLE
 62
256
370
-1
 48
1.0
  6
BYLAYER
 10
410.6221891252880596
 20
135.0250608838472886
 30
0.0
 11
407.6221891252880596
 21
135.0250608838472886
 31
0.0
  0
LINE
  5
1DA
100
AcDbEntity
100
AcDbLine
  8
VISIBLE
 62
256
370
-1
 48
1.0
  6
BYLAYER
 10
450.0
 20
135.0
 30
0.0
 11
447.0
 21
135.0
 31
0.0
  0
LINE
  5
1DB
100
AcDbEntity
100
AcDbLine
  8
VISIBLE
 62
256
370
-1
 48
1.0
  6
BYLAYER
 10
489.0
 20
135.0
 30
0.0
 11
486.0
 21
135.0
 31
0.0
  0
LINE
  5
1DC
100
AcDbEntity
100
AcDbLine
  8
VISIBLE
 62
256
370
-1
 48
1.0
  6
BYLAYER
 10
358.5960019432081367
 20
204.9416638375753905
 30
0.0
 11
358.5960019432081367
 21
201.9416638375753621
 31
0.0
  0
LINE
  5
1DD
100
AcDbEntity
100
AcDbLine
  8
VISIBLE
 62
256
370
-1
 48
1.0
  6
BYLAYER
 10
358.2313551696528293
 20
247.1551678031690074
 30
0.0
 11
358.2313551696528293
 21
244.1551678031689789
 31
0.0
  0
ENDSEC
  0
SECTION
  2
OBJECTS
  0
DICTIONARY
  5
C
100
AcDbDictionary
280
0
281
1
  3
ACAD_GROUP
350
D
  3
ACAD_LAYOUT
350
1A
  3
ACAD_MLINESTYLE
350
17
  3
ACAD_PLOTSETTINGS
350
19
  3
ACAD_PLOTSTYLENAME
350
E
  3
AcDbVariableDictionary
350
1DE
  3
QCAD_OBJECTS
350
1DF
  0
DICTIONARY
  5
D
100
AcDbDictionary
280
0
281
1
  0
ACDBDICTIONARYWDFLT
  5
E
100
AcDbDictionary
281
1
  3
Normal
350
F
100
AcDbDictionaryWithDefault
340
F
  0
ACDBPLACEHOLDER
  5
F
  0
DICTIONARY
  5
17
100
AcDbDictionary
280
0
281
1
  3
Standard
350
18
  0
MLINESTYLE
  5
18
100
AcDbMlineStyle
  2
STANDARD
 70
0
  3

 62
256
 51
90.0
 52
90.0
 71
2
 49
0.5
 62
256
  6
BYLAYER
 49
-0.5
 62
256
  6
BYLAYER
  0
DICTIONARY
  5
19
100
AcDbDictionary
280
0
281
1
  0
DICTIONARY
  5
1A
100
AcDbDictionary
281
1
  3
Layout1
350
1E
  3
Layout2
350
26
  3
Model
350
22
  0
LAYOUT
  5
1E
100
AcDbPlotSettings
  1

  2
none_device
  4

  6

 40
0.0
 41
0.0
 42
0.0
 43
0.0
 44
0.0
 45
0.0
 46
0.0
 47
0.0
 48
0.0
 49
0.0
140
0.0
141
0.0
142
1.0
143
1.0
 70
688
 72
0
 73
0
 74
5
  7

 75
16
147
1.0
148
0.0
149
0.0
100
AcDbLayout
  1
Layout1
 70
1
 71
1
 10
0.0
 20
0.0
 11
420.0
 21
297.0
 12
0.0
 22
0.0
 32
0.0
 14
100000000000000000000.0
 24
100000000000000000000.0
 34
100000000000000000000.0
 15
-100000000000000000000.0
 25
-100000000000000000000.0
 35
-100000000000000000000.0
146
0.0
 13
0.0
 23
0.0
 33
0.0
 16
1.0
 26
0.0
 36
0.0
 17
0.0
 27
1.0
 37
0.0
 76
0
330
1B
  0
LAYOUT
  5
22
100
AcDbPlotSettings
  1

  2
none_device
  4

  6

 40
0.0
 41
0.0
 42
0.0
 43
0.0
 44
0.0
 45
0.0
 46
0.0
 47
0.0
 48
0.0
 49
0.0
140
0.0
141
0.0
142
1.0
143
1.0
 70
1712
 72
0
 73
0
 74
0
  7

 75
0
147
1.0
148
0.0
149
0.0
100
AcDbLayout
  1
Model
 70
1
 71
0
 10
0.0
 20
0.0
 11
12.0
 21
9.0
 12
0.0
 22
0.0
 32
0.0
 14
0.0
 24
0.0
 34
0.0
 15
0.0
 25
0.0
 35
0.0
146
0.0
 13
0.0
 23
0.0
 33
0.0
 16
1.0
 26
0.0
 36
0.0
 17
0.0
 27
1.0
 37
0.0
 76
0
330
1F
  0
LAYOUT
  5
26
100
AcDbPlotSettings
  1

  2
none_device
  4

  6

 40
0.0
 41
0.0
 42
0.0
 43
0.0
 44
0.0
 45
0.0
 46
0.0
 47
0.0
 48
0.0
 49
0.0
140
0.0
141
0.0
142
1.0
143
1.0
 70
688
 72
0
 73
0
 74
5
  7

 75
16
147
1.0
148
0.0
149
0.0
100
AcDbLayout
  1
Layout2
 70
1
 71
2
 10
0.0
 20
0.0
 11
12.0
 21
9.0
 12
0.0
 22
0.0
 32
0.0
 14
0.0
 24
0.0
 34
0.0
 15
0.0
 25
0.0
 35
0.0
146
0.0
 13
0.0
 23
0.0
 33
0.0
 16
1.0
 26
0.0
 36
0.0
 17
0.0
 27
1.0
 37
0.0
 76
0
330
23
  0
DICTIONARY
  5
1DE
100
AcDbDictionary
281
1
  3
DIMASSOC
350
1E1
  3
HIDETEXT
350
1E0
  0
DICTIONARYVAR
  5
1E0
100
DictionaryVariables
280
0
  1
2
  0
DICTIONARYVAR
  5
1E1
100
DictionaryVariables
280
0
  1
1
  0
DICTIONARY
  5
1DF
100
AcDbDictionary
281
1
  3
ColorSettings/BackgroundColor
350
1E2
  3
ColorSettings/ColorMode
350
1E3
  3
Grid/DisplayGrid00
350
1E4
  3
Grid/DisplayGrid01
350
1E5
  3
Grid/DisplayGrid02
350
1E6
  3
Grid/DisplayGrid03
350
1E7
  3
Grid/GridSpacingX00
350
1E8
  3
Grid/GridSpacingX01
350
1E9
  3
Grid/GridSpacingX02
350
1EA
  3
Grid/GridSpacingX03
350
1EB
  3
Grid/GridSpacingY00
350
1EC
  3
Grid/GridSpacingY01
350
1ED
  3
Grid/GridSpacingY02
350
1EE
  3
Grid/GridSpacingY03
350
1EF
  3
Grid/IsometricGrid00
350
1F0
  3
Grid/IsometricGrid01
350
1F1
  3
Grid/IsometricGrid02
350
1F2
  3
Grid/IsometricGrid03
350
1F3
  3
Grid/IsometricProjection00
350
1F4
  3
Grid/IsometricProjection01
350
1F5
  3
Grid/IsometricProjection02
350
1F6
  3
Grid/IsometricProjection03
350
1F7
  3
Grid/MetaGridSpacingX00
350
1F8
  3
Grid/MetaGridSpacingX01
350
1F9
  3
Grid/MetaGridSpacingX02
350
1FA
  3
Grid/MetaGridSpacingX03
350
1FB
  3
Grid/MetaGridSpacingY00
350
1FC
  3
Grid/MetaGridSpacingY01
350
1FD
  3
Grid/MetaGridSpacingY02
350
1FE
  3
Grid/MetaGridSpacingY03
350
1FF
  3
MultiPageSettings/Columns
350
200
  3
MultiPageSettings/GlueMarginsBottom
350
201
  3
MultiPageSettings/GlueMarginsLeft
350
202
  3
MultiPageSettings/GlueMarginsRight
350
203
  3
MultiPageSettings/GlueMarginsTop
350
204
  3
MultiPageSettings/PrintCropMarks
350
205
  3
MultiPageSettings/Rows
350
206
  3
PageSettings/OffsetX
350
207
  3
PageSettings/OffsetY
350
208
  3
PageSettings/PageOrientation
350
209
  3
PageSettings/PaperHeight
350
20A
  3
PageSettings/PaperWidth
350
20B
  3
PageSettings/Scale
350
20C
  3
PageSettings/ShowPaperBorders
350
20D
  3
QCADVersion
350
20E
  3
UnitSettings/PaperUnit
350
20F
  0
XRECORD
  5
1E2
330
1DF
100
AcDbXrecord
280
1
1000
Blanc
  0
XRECORD
  5
1E3
330
1DF
100
AcDbXrecord
280
1
1000
FullColor
  0
XRECORD
  5
1E4
330
1DF
100
AcDbXrecord
280
1
290
1
  0
XRECORD
  5
1E5
330
1DF
100
AcDbXrecord
280
1
290
1
  0
XRECORD
  5
1E6
330
1DF
100
AcDbXrecord
280
1
290
1
  0
XRECORD
  5
1E7
330
1DF
100
AcDbXrecord
280
1
290
1
  0
XRECORD
  5
1E8
330
1DF
100
AcDbXrecord
280
1
1000
auto
  0
XRECORD
  5
1E9
330
1DF
100
AcDbXrecord
280
1
1000
auto
  0
XRECORD
  5
1EA
330
1DF
100
AcDbXrecord
280
1
1000
auto
  0
XRECORD
  5
1EB
330
1DF
100
AcDbXrecord
280
1
1000
auto
  0
XRECORD
  5
1EC
330
1DF
100
AcDbXrecord
280
1
1000
auto
  0
XRECORD
  5
1ED
330
1DF
100
AcDbXrecord
280
1
1000
auto
  0
XRECORD
  5
1EE
330
1DF
100
AcDbXrecord
280
1
1000
auto
  0
XRECORD
  5
1EF
330
1DF
100
AcDbXrecord
280
1
1000
auto
  0
XRECORD
  5
1F0
330
1DF
100
AcDbXrecord
280
1
290
0
  0
XRECORD
  5
1F1
330
1DF
100
AcDbXrecord
280
1
290
0
  0
XRECORD
  5
1F2
330
1DF
100
AcDbXrecord
280
1
290
0
  0
XRECORD
  5
1F3
330
1DF
100
AcDbXrecord
280
1
290
0
  0
XRECORD
  5
1F4
330
1DF
100
AcDbXrecord
280
1
 90
0
  0
XRECORD
  5
1F5
330
1DF
100
AcDbXrecord
280
1
 90
0
  0
XRECORD
  5
1F6
330
1DF
100
AcDbXrecord
280
1
 90
0
  0
XRECORD
  5
1F7
330
1DF
100
AcDbXrecord
280
1
 90
0
  0
XRECORD
  5
1F8
330
1DF
100
AcDbXrecord
280
1
1000
auto
  0
XRECORD
  5
1F9
330
1DF
100
AcDbXrecord
280
1
1000
auto
  0
XRECORD
  5
1FA
330
1DF
100
AcDbXrecord
280
1
1000
auto
  0
XRECORD
  5
1FB
330
1DF
100
AcDbXrecord
280
1
1000
auto
  0
XRECORD
  5
1FC
330
1DF
100
AcDbXrecord
280
1
1000
auto
  0
XRECORD
  5
1FD
330
1DF
100
AcDbXrecord
280
1
1000
auto
  0
XRECORD
  5
1FE
330
1DF
100
AcDbXrecord
280
1
1000
auto
  0
XRECORD
  5
1FF
330
1DF
100
AcDbXrecord
280
1
1000
auto
  0
XRECORD
  5
200
330
1DF
100
AcDbXrecord
280
1
 90
1
  0
XRECORD
  5
201
330
1DF
100
AcDbXrecord
280
1
 40
10.0
  0
XRECORD
  5
202
330
1DF
100
AcDbXrecord
280
1
 40
10.0
  0
XRECORD
  5
203
330
1DF
100
AcDbXrecord
280
1
 40
10.0
  0
XRECORD
  5
204
330
1DF
100
AcDbXrecord
280
1
 40
10.0
  0
XRECORD
  5
205
330
1DF
100
AcDbXrecord
280
1
290
0
  0
XRECORD
  5
206
330
1DF
100
AcDbXrecord
280
1
 90
1
  0
XRECORD
  5
207
330
1DF
100
AcDbXrecord
280
1
 40
0.0
  0
XRECORD
  5
208
330
1DF
100
AcDbXrecord
280
1
 40
0.0
  0
XRECORD
  5
209
330
1DF
100
AcDbXrecord
280
1
1000
Portrait
  0
XRECORD
  5
20A
330
1DF
100
AcDbXrecord
280
1
 40
297.0
  0
XRECORD
  5
20B
330
1DF
100
AcDbXrecord
280
1
 40
210.0
  0
XRECORD
  5
20C
330
1DF
100
AcDbXrecord
280
1
1000
1:1
  0
XRECORD
  5
20D
330
1DF
100
AcDbXrecord
280
1
290
1
  0
XRECORD
  5
20E
330
1DF
100
AcDbXrecord
280
1
1000
3.12.4
  0
XRECORD
  5
20F
330
1DF
100
AcDbXrecord
280
1
 90
4
  0
ENDSEC
  0
EOF
